<?xml version="1.0" encoding="UTF-8"?>
<!-- Generator: visioncortex VTracer 0.6.3 -->
<svg version="1.1" xmlns="http://www.w3.org/2000/svg" width="1280" height="1280">
<path d="M0 0 C422.4 0 844.8 0 1280 0 C1280 422.4 1280 844.8 1280 1280 C857.6 1280 435.2 1280 0 1280 C0 857.6 0 435.2 0 0 Z " fill="#000000" transform="translate(0,0)"/>
<path d="M0 0 C1.66 -0.04 1.66 -0.04 3.34 -0.09 C7.18 0.47 8.83 1.6 11.5 4.38 C11.82 9.95 9.76 12.69 6.26 16.63 C3.45 19.42 0.31 21.44 -3.06 23.5 C-3.79 23.96 -4.51 24.41 -5.26 24.89 C-7.67 26.4 -10.08 27.89 -12.5 29.38 C-14.29 30.48 -16.07 31.59 -17.86 32.69 C-20.58 34.38 -23.31 36.06 -26.04 37.74 C-44.08 48.88 -61.47 60.91 -77.14 75.24 C-79.18 77.09 -81.26 78.86 -83.38 80.62 C-93.69 89.65 -102.26 100.48 -110.5 111.38 C-110.95 111.96 -111.39 112.54 -111.85 113.15 C-119.73 123.48 -126.7 134.31 -133.5 145.38 C-134.17 146.46 -134.17 146.46 -134.85 147.57 C-136.1 149.58 -137.33 151.6 -138.56 153.62 C-138.92 154.21 -139.28 154.79 -139.65 155.39 C-141.97 159.26 -143.73 163.23 -145.5 167.38 C-146.83 169.89 -148.25 172.35 -149.69 174.81 C-150.06 175.45 -150.42 176.08 -150.8 176.74 C-151.7 178.29 -152.6 179.83 -153.5 181.38 C-150.57 177 -147.65 172.61 -144.78 168.19 C-137.57 157.12 -129.75 146.68 -121.5 136.38 C-120.69 135.35 -119.87 134.32 -119.04 133.26 C-104.81 115.51 -88.51 98.27 -70.5 84.38 C-68.79 82.94 -67.08 81.5 -65.38 80.06 C-36.45 56.49 -2.83 38.25 32.5 26.38 C33.39 26.07 34.27 25.76 35.18 25.44 C47.78 21.08 60.57 18.14 73.62 15.56 C74.36 15.42 75.09 15.27 75.85 15.12 C95.67 11.17 115.38 9.99 135.56 10.06 C136.59 10.06 137.61 10.07 138.67 10.07 C155.11 10.12 171.23 10.76 187.5 13.38 C188.58 13.55 189.66 13.72 190.77 13.9 C245.9 22.98 302.83 46.57 344.09 85.14 C346.09 87 348.13 88.78 350.19 90.56 C361.9 100.77 373.11 111.99 382.5 124.38 C383.51 125.66 384.52 126.94 385.53 128.22 C392.64 137.28 399.18 146.59 405.26 156.38 C406.41 158.23 407.58 160.06 408.76 161.9 C419.65 179.12 428.14 198.04 434.5 217.38 C434.94 218.68 434.94 218.68 435.39 220.02 C440.33 234.92 443.87 249.9 446.5 265.38 C446.67 266.29 446.83 267.2 447 268.14 C452.28 298.18 452.16 332.41 446.5 362.38 C446.33 363.35 446.16 364.32 445.98 365.32 C442.37 385.67 437.29 405.75 431.19 425.5 C430.82 426.69 430.82 426.69 430.45 427.91 C429.86 429.75 429.19 431.57 428.5 433.38 C427.51 433.87 427.51 433.87 426.5 434.38 C427.58 429.07 428.91 423.97 430.56 418.81 C432.1 413.93 433.04 409.46 433.5 404.38 C433.82 403.04 434.15 401.71 434.5 400.38 C439.53 376.18 441.74 352.69 441.75 328 C441.75 326.93 441.75 325.86 441.75 324.75 C441.74 309.39 441.36 294.51 438.5 279.38 C438.32 278.37 438.15 277.37 437.96 276.33 C430.56 234.53 415.67 193.86 390.5 159.38 C389.72 158.27 388.94 157.16 388.16 156.05 C380.92 145.72 373.13 136.04 364.62 126.72 C362.68 124.58 360.81 122.39 358.94 120.19 C356.14 116.99 353.16 114.22 349.92 111.48 C347.99 109.8 346.12 108.09 344.27 106.33 C337.34 99.76 330.4 93.78 322.5 88.38 C321.73 87.82 320.96 87.26 320.16 86.69 C254.11 39.21 173.08 21.88 93.23 34.65 C63.45 39.69 33.68 47.98 6.5 61.38 C5.17 62.01 3.84 62.65 2.5 63.29 C-1.53 65.25 -5.52 67.29 -9.5 69.38 C-10.56 69.93 -10.56 69.93 -11.64 70.49 C-27.25 78.7 -41.66 88.46 -55.5 99.38 C-56.36 100.04 -57.22 100.7 -58.11 101.39 C-74.05 113.87 -89.06 128.41 -101.5 144.38 C-102.38 145.46 -103.26 146.55 -104.14 147.64 C-115.44 161.66 -124.72 176.68 -133.5 192.38 C-133.88 193.06 -134.27 193.75 -134.67 194.46 C-143.35 209.74 -143.35 209.74 -148.5 226.38 C-148.83 227.37 -149.16 228.36 -149.5 229.38 C-149.21 228.85 -148.91 228.33 -148.61 227.79 C-138.67 210.62 -126.22 194.55 -113.5 179.38 C-113.06 178.85 -112.63 178.33 -112.18 177.79 C-106.22 170.67 -100.08 163.73 -93.75 156.94 C-93.15 156.29 -92.55 155.64 -91.93 154.97 C-87.69 150.46 -83.2 146.39 -78.5 142.38 C-77.48 141.48 -76.46 140.57 -75.44 139.67 C-67.76 133.02 -59.75 127.16 -51.28 121.56 C-49.79 120.57 -48.32 119.56 -46.85 118.55 C-19.76 100.42 17.22 84.07 50.5 85.38 C48.12 87.75 46.37 88.22 43.19 89.31 C36.81 91.71 30.8 94.62 24.75 97.75 C23.44 98.42 23.44 98.42 22.1 99.1 C6.81 107.14 -5.5 118.38 -10.81 135.12 C-12.84 142.09 -13.66 148.54 -13.62 155.75 C-13.63 156.47 -13.63 157.18 -13.64 157.92 C-13.63 162.02 -13.29 165.91 -12.74 169.97 C-12.17 175.71 -12.27 181.49 -12.25 187.25 C-12.22 189.22 -12.22 189.22 -12.19 191.22 C-12.14 201.91 -12.94 210.79 -20.54 218.75 C-23.58 221.27 -26.69 222.47 -30.5 223.38 C-31.21 223.55 -31.93 223.72 -32.66 223.89 C-36.1 224.48 -39.41 224.54 -42.9 224.59 C-44.36 224.61 -45.83 224.64 -47.29 224.67 C-49.57 224.71 -51.84 224.75 -54.12 224.78 C-72.98 225.02 -90.55 227.47 -104.81 241 C-127.62 265.92 -138.1 299.03 -139.5 332.38 C-139.54 333.27 -139.58 334.17 -139.62 335.1 C-140.4 369.39 -131.51 408.26 -112.75 437.29 C-111.46 439.45 -110.61 441.52 -109.75 443.88 C-107.89 448.79 -105.45 453.25 -102.88 457.81 C-102.45 458.57 -102.02 459.33 -101.58 460.12 C-101.14 460.9 -100.7 461.67 -100.25 462.48 C-97.41 467.52 -94.62 472.59 -91.88 477.69 C-91.44 478.48 -91 479.28 -90.55 480.09 C-86.79 487.12 -86.79 487.12 -87.5 491.38 C-88.5 492.38 -88.5 492.38 -91.94 492.75 C-93.11 492.96 -94.29 493.16 -95.5 493.38 C-96.16 494.37 -96.82 495.36 -97.5 496.38 C-98.16 496.05 -98.82 495.71 -99.5 495.38 C-100.16 495.7 -100.82 496.04 -101.5 496.38 C-104.81 496.6 -108.12 496.46 -111.44 496.38 C-112.34 496.38 -113.24 496.39 -114.17 496.39 C-126.53 496.02 -134.9 487.72 -143.19 479.31 C-144.02 478.48 -144.84 477.64 -145.7 476.78 C-152.11 470.13 -156.55 463.75 -160.5 455.38 C-161.13 454.19 -161.77 453.01 -162.42 451.84 C-180.09 419.18 -187.89 380.11 -190.5 343.38 C-190.56 342.61 -190.61 341.84 -190.67 341.04 C-197.13 249.81 -167.25 161.1 -111.5 89.38 C-110.89 88.57 -110.28 87.76 -109.65 86.93 C-100.47 75.02 -89.59 64.39 -79 53.75 C-78.37 53.11 -77.73 52.47 -77.08 51.82 C-70.69 45.45 -63.94 39.59 -56.81 34.06 C-55.91 33.36 -55.91 33.36 -55 32.65 C-53.76 31.69 -52.53 30.73 -51.29 29.77 C-49.6 28.45 -47.92 27.13 -46.23 25.8 C-13.62 0.16 -13.62 0.16 0 0 Z " fill="#F2A512" transform="translate(510.5,278.625)"/>
<path d="M0 0 C1.19 3.57 0.64 5.31 0 9 C-0.13 11.69 -0.21 14.36 -0.24 17.05 C-0.25 17.82 -0.26 18.59 -0.27 19.39 C-0.45 36.96 -0.06 53.8 4 71 C4.23 71.99 4.46 72.98 4.7 74 C7.2 84.56 10.04 94.92 13.92 105.06 C15.12 108.33 16.04 111.65 17 115 C17.6 116.59 18.22 118.18 18.88 119.75 C25.5 136.05 30.13 152.88 34.47 169.91 C34.91 171.67 35.38 173.42 35.84 175.18 C37.73 182.73 38.92 190.38 40.12 198.06 C40.3 199.15 40.47 200.24 40.64 201.36 C42.63 214.46 43.19 227.32 43.19 240.54 C43.19 243.23 43.21 245.92 43.22 248.61 C43.28 264.62 41.77 279.63 37 295 C36.79 295.69 36.58 296.39 36.36 297.1 C33.17 307.38 29.22 316.14 23 325 C22.45 325.79 21.91 326.58 21.34 327.39 C16.7 333.59 11.19 339.01 5.75 344.5 C4.96 345.3 4.16 346.11 3.35 346.93 C2.59 347.69 1.83 348.44 1.05 349.22 C0.02 350.24 0.02 350.24 -1.02 351.28 C-2.94 352.95 -4.68 353.99 -7 355 C-6.67 354.01 -6.34 353.02 -6 352 C-5.34 352 -4.68 352 -4 352 C-3.73 351.4 -3.46 350.8 -3.19 350.19 C-2 348 -2 348 -0.5 346.56 C1.14 345.06 1.14 345.06 1.81 342.81 C2.89 340.25 3.84 338.86 5.56 336.75 C14.14 325.57 19.59 312.58 23 299 C23.19 298.29 23.39 297.57 23.59 296.84 C30.48 271 28.4 241.89 23 216 C22.78 214.9 22.55 213.81 22.32 212.68 C19.53 199.38 15.99 186.5 11.83 173.57 C10.43 169.23 9.05 164.88 7.68 160.53 C7.12 158.77 6.56 157.01 6 155.24 C5.72 154.37 5.44 153.5 5.16 152.6 C4.59 150.81 4.02 149.02 3.45 147.23 C2.61 144.58 1.77 141.93 0.93 139.28 C0.68 138.49 0.43 137.71 0.17 136.9 C-7.15 113.84 -10.36 92.1 -10.32 67.94 C-10.31 64.57 -10.34 61.21 -10.36 57.84 C-10.41 41.87 -10.31 22.63 -3 8 C-2.34 8 -1.68 8 -1 8 C-1.02 7.05 -1.04 6.1 -1.06 5.12 C-1 2 -1 2 0 0 Z " fill="#ECE4C7" transform="translate(634,421)"/>
<path d="M0 0 C5.45 -0.66 10.95 -1.15 16.17 0.84 C20.59 4.63 22.8 10.23 25.1 15.46 C26.46 18.5 28.01 21.42 29.59 24.35 C30.3 25.65 30.98 26.96 31.66 28.28 C33.26 31.66 33.26 31.66 36.17 33.84 C36.17 34.5 36.17 35.16 36.17 35.84 C36.83 35.84 37.49 35.84 38.17 35.84 C38.43 35.14 38.69 34.45 38.96 33.73 C41.08 28.65 43.84 23.9 46.51 19.09 C47.54 17.22 48.56 15.34 49.58 13.45 C50.24 12.26 50.9 11.06 51.56 9.86 C52.16 8.78 52.75 7.69 53.37 6.58 C55.13 3.9 56.39 2.41 59.17 0.84 C62 0.62 64.6 0.55 67.42 0.65 C68.16 0.66 68.91 0.68 69.67 0.69 C71.5 0.73 73.34 0.78 75.17 0.84 C76.74 3.98 76.3 7.33 76.28 10.78 C76.28 11.59 76.28 12.41 76.28 13.26 C76.28 15.98 76.27 18.69 76.26 21.41 C76.26 23.29 76.26 25.17 76.26 27.05 C76.26 32 76.25 36.96 76.23 41.91 C76.22 46.97 76.22 52.02 76.21 57.08 C76.2 67 76.19 76.92 76.17 86.84 C73.39 86.89 70.62 86.93 67.85 86.96 C67.07 86.98 66.28 87 65.47 87.01 C64.72 87.02 63.96 87.03 63.18 87.03 C62.48 87.04 61.78 87.05 61.07 87.06 C59.17 86.84 59.17 86.84 56.17 84.84 C55.77 83.04 55.77 83.04 55.73 80.85 C55.71 80.03 55.69 79.21 55.67 78.36 C55.67 77.47 55.66 76.59 55.65 75.67 C55.64 74.77 55.62 73.86 55.6 72.92 C55.55 70.02 55.51 67.12 55.48 64.21 C55.45 62.25 55.41 60.28 55.37 58.31 C55.29 53.49 55.22 48.66 55.17 43.84 C54.77 44.5 54.38 45.16 53.97 45.85 C48.7 54.68 48.7 54.68 45.85 58.9 C45.36 59.63 44.87 60.37 44.36 61.12 C43.17 62.84 43.17 62.84 42.17 63.84 C40.06 64.11 40.06 64.11 37.42 64.21 C36.55 64.26 35.69 64.31 34.81 64.36 C31.17 63.64 29.44 61.6 27.17 58.84 C25.25 55.98 23.55 53.02 21.85 50.02 C21.17 48.84 21.17 48.84 20.48 47.64 C19.37 45.71 18.26 43.77 17.17 41.84 C17.15 42.66 17.15 42.66 17.13 43.5 C17.03 49.19 16.91 54.89 16.79 60.58 C16.75 62.71 16.71 64.84 16.67 66.96 C16.61 70.01 16.55 73.06 16.48 76.11 C16.46 77.55 16.46 77.55 16.43 79.02 C16.41 79.9 16.39 80.78 16.37 81.68 C16.36 82.46 16.34 83.24 16.32 84.05 C16.17 85.84 16.17 85.84 15.17 86.84 C12.36 86.99 9.6 87.07 6.79 87.09 C6.01 87.11 5.23 87.13 4.42 87.15 C-1.26 87.19 -1.26 87.19 -3.56 85.78 C-5.5 82.82 -5.25 79.84 -5.22 76.42 C-5.23 75.66 -5.23 74.91 -5.24 74.13 C-5.25 71.64 -5.24 69.15 -5.23 66.66 C-5.23 64.93 -5.24 63.19 -5.24 61.46 C-5.25 57.83 -5.24 54.19 -5.23 50.56 C-5.21 45.91 -5.22 41.26 -5.24 36.6 C-5.25 33.02 -5.24 29.44 -5.24 25.87 C-5.23 24.15 -5.24 22.43 -5.24 20.72 C-5.25 18.32 -5.24 15.92 -5.22 13.52 C-5.23 12.81 -5.23 12.1 -5.24 11.38 C-5.18 6.76 -4.6 2.1 0 0 Z " fill="#F2A512" transform="translate(583.834228515625,838.16259765625)"/>
<path d="M0 0 C3.81 2.46 5.11 5.11 6.79 9.17 C8.86 13.9 11.44 18.09 14.31 22.38 C15.28 23.85 16.26 25.33 17.23 26.81 C17.7 27.52 18.17 28.23 18.65 28.96 C20.51 31.78 22.36 34.6 24.19 37.44 C24.74 38.28 25.29 39.13 25.86 40 C27 42 27 42 27 44 C27.66 44 28.32 44 29 44 C29.33 44 29.66 44 30 44 C29.98 42.84 29.96 41.68 29.94 40.48 C29.86 36.17 29.82 31.87 29.78 27.56 C29.76 25.69 29.73 23.83 29.7 21.96 C29.65 19.28 29.63 16.6 29.61 13.92 C29.59 13.09 29.57 12.26 29.55 11.4 C29.54 5.6 29.54 5.6 31.9 2.5 C35.25 0.11 37.34 -0.21 41.44 -0.31 C42.41 -0.35 43.37 -0.39 44.37 -0.43 C47 0 47 0 48.79 1.58 C51.41 6.81 51.13 12.84 51.13 18.57 C51.13 19.65 51.13 19.65 51.13 20.76 C51.14 23.12 51.14 25.48 51.13 27.84 C51.13 29.48 51.13 31.13 51.14 32.78 C51.14 36.21 51.14 39.65 51.13 43.09 C51.12 47.5 51.13 51.92 51.13 56.34 C51.14 59.73 51.14 63.12 51.13 66.52 C51.13 68.15 51.13 69.77 51.14 71.4 C51.14 73.67 51.13 75.94 51.13 78.2 C51.13 79.5 51.13 80.79 51.13 82.12 C51 85 51 85 50 86 C47.42 86.21 44.9 86.32 42.31 86.38 C41.25 86.43 41.25 86.43 40.17 86.49 C36.05 86.56 34.29 86.19 30.73 83.88 C27.93 80.92 26.01 78.16 24 74.62 C23.24 73.31 22.47 71.99 21.71 70.68 C21.29 69.95 20.87 69.22 20.43 68.46 C17.57 63.55 14.63 58.68 11.69 53.81 C11.09 52.81 10.49 51.8 9.87 50.77 C9.3 49.82 8.73 48.87 8.14 47.89 C7.63 47.05 7.12 46.2 6.6 45.33 C4.94 42.92 3.13 41 1 39 C1.33 39.66 1.66 40.32 2 41 C2.09 42.41 2.13 43.83 2.13 45.25 C2.13 46.13 2.14 47.01 2.14 47.91 C2.14 48.86 2.13 49.81 2.13 50.79 C2.13 52.24 2.13 52.24 2.14 53.73 C2.14 55.78 2.13 57.84 2.13 59.89 C2.13 63.05 2.13 66.21 2.14 69.37 C2.14 71.36 2.13 73.35 2.13 75.35 C2.13 76.3 2.14 77.25 2.14 78.23 C2.14 79.1 2.13 79.98 2.13 80.88 C2.13 81.65 2.13 82.43 2.13 83.22 C2 85 2 85 1 86 C-1.8 86.13 -4.57 86.19 -7.38 86.19 C-8.16 86.2 -8.94 86.21 -9.74 86.22 C-13.68 86.23 -15.66 86.23 -19 84 C-19.37 81.2 -19.37 81.2 -19.37 77.58 C-19.38 76.59 -19.38 76.59 -19.38 75.59 C-19.39 73.4 -19.38 71.21 -19.36 69.03 C-19.36 67.5 -19.36 65.98 -19.36 64.46 C-19.36 61.26 -19.35 58.06 -19.34 54.86 C-19.31 50.78 -19.31 46.7 -19.32 42.63 C-19.32 39.48 -19.32 36.33 -19.31 33.18 C-19.3 31.67 -19.3 30.17 -19.3 28.67 C-19.31 8.08 -19.31 8.08 -14 1 C-9.79 -1.1 -4.57 -0.52 0 0 Z " fill="#F3A613" transform="translate(424,839)"/>
<path d="M0 0 C1.87 -0.02 1.87 -0.02 3.79 -0.04 C6.94 0.19 6.94 0.19 8.94 2.19 C9.26 5.17 9.26 5.17 9.35 8.95 C9.37 9.61 9.39 10.27 9.41 10.95 C9.47 13.07 9.52 15.19 9.56 17.31 C9.6 18.75 9.64 20.18 9.68 21.62 C9.78 25.14 9.86 28.66 9.94 32.19 C23.8 32.68 23.8 32.68 37.94 33.19 C37.89 29.99 37.89 29.99 37.83 26.73 C37.81 24.67 37.79 22.6 37.77 20.53 C37.76 19.1 37.74 17.67 37.71 16.23 C37.67 14.17 37.66 12.11 37.64 10.04 C37.63 8.8 37.61 7.56 37.6 6.28 C37.94 3.19 37.94 3.19 39.24 1.28 C42.09 -0.56 45.22 -0.24 48.5 -0.19 C49.19 -0.2 49.87 -0.21 50.58 -0.22 C52.57 -0.21 52.57 -0.21 55.94 0.19 C58.4 3.89 58.21 6.68 58.16 10.96 C58.16 11.75 58.17 12.54 58.17 13.36 C58.16 15.97 58.15 18.59 58.13 21.2 C58.13 23.01 58.13 24.82 58.12 26.63 C58.12 31.4 58.1 36.17 58.07 40.94 C58.05 45.81 58.05 50.67 58.04 55.54 C58.01 65.09 57.98 74.64 57.94 84.19 C54.98 84.21 52.02 84.23 49.06 84.25 C48.22 84.26 47.38 84.27 46.51 84.28 C45.71 84.28 44.9 84.28 44.07 84.29 C42.95 84.29 42.95 84.29 41.82 84.3 C39.94 84.19 39.94 84.19 37.94 83.19 C37.91 82.31 37.89 81.44 37.86 80.54 C37.77 77.31 37.67 74.08 37.57 70.85 C37.52 69.45 37.48 68.05 37.44 66.65 C37.38 64.64 37.32 62.64 37.25 60.63 C37.2 58.81 37.2 58.81 37.14 56.96 C37.25 54.28 37.25 54.28 35.94 53.19 C34.01 53.03 32.08 52.94 30.15 52.87 C29.1 52.83 28.05 52.79 26.96 52.76 C25.61 52.71 24.26 52.67 22.88 52.62 C16.47 52.41 16.47 52.41 9.94 52.19 C9.61 62.75 9.28 73.31 8.94 84.19 C4.54 84.22 4.54 84.22 0.06 84.25 C-1.32 84.26 -1.32 84.26 -2.73 84.28 C-3.82 84.28 -3.82 84.28 -4.93 84.29 C-5.67 84.29 -6.42 84.3 -7.18 84.3 C-9.06 84.19 -9.06 84.19 -11.06 83.19 C-11.09 72.94 -11.1 62.69 -11.11 52.44 C-11.12 47.68 -11.13 42.92 -11.14 38.17 C-11.15 33.58 -11.15 28.99 -11.16 24.39 C-11.16 22.64 -11.16 20.89 -11.17 19.14 C-11.18 16.68 -11.18 14.23 -11.18 11.78 C-11.18 11.05 -11.18 10.32 -11.19 9.57 C-11.18 6.5 -11.04 4.13 -10.06 1.19 C-6.56 0.02 -3.69 0.02 0 0 Z " fill="#ECE3C6" transform="translate(781.0625,838.8125)"/>
<path d="M0 0 C0.72 -0.03 1.43 -0.07 2.17 -0.1 C5.58 -0.13 7.54 -0.06 10.05 2.33 C12.79 6.56 14.36 10.96 16.04 15.7 C16.41 16.7 16.77 17.71 17.15 18.75 C18.34 22.02 19.51 25.29 20.69 28.56 C21.5 30.8 22.31 33.03 23.12 35.27 C24.32 38.59 25.52 41.91 26.72 45.23 C28.93 51.34 31.17 57.44 33.47 63.51 C33.71 64.15 33.95 64.79 34.2 65.45 C35.27 68.26 36.34 71.07 37.42 73.88 C37.78 74.83 38.14 75.79 38.51 76.77 C38.81 77.56 39.12 78.35 39.43 79.17 C40.13 81.68 40.18 83.84 40.06 86.44 C37.14 86.57 34.23 86.67 31.31 86.75 C30.49 86.79 29.66 86.83 28.81 86.88 C22.77 87 22.77 87 19.67 84.54 C18.06 81.44 18.06 81.44 15.06 71.44 C-0.28 71.93 -0.28 71.93 -15.94 72.44 C-16.93 75.74 -17.92 79.04 -18.94 82.44 C-19.93 83.76 -20.92 85.08 -21.94 86.44 C-24.93 86.76 -27.52 86.86 -30.5 86.75 C-31.28 86.74 -32.06 86.73 -32.87 86.72 C-38.6 86.61 -38.6 86.61 -40.94 85.44 C-40.28 80.17 -38.66 75.57 -36.8 70.64 C-36.48 69.79 -36.16 68.93 -35.83 68.05 C-34.79 65.26 -33.74 62.47 -32.69 59.69 C-31.96 57.76 -31.24 55.84 -30.52 53.91 C-29.05 49.99 -27.57 46.08 -26.09 42.16 C-24.39 37.64 -22.7 33.11 -21.01 28.58 C-19.83 25.41 -18.65 22.25 -17.46 19.1 C-16.9 17.62 -16.35 16.14 -15.81 14.67 C-15.05 12.63 -14.28 10.59 -13.51 8.56 C-13.08 7.42 -12.66 6.28 -12.22 5.1 C-9.6 -0.35 -5.37 0.04 0 0 Z " fill="#F3A613" transform="translate(527.9375,838.5625)"/>
<path d="M0 0 C5.71 6.19 7.9 11.66 7.73 20.14 C4.83 20.33 1.95 20.46 -0.96 20.57 C-1.77 20.63 -2.59 20.69 -3.43 20.75 C-5.89 20.82 -7.89 20.79 -10.27 20.14 C-11.96 18.49 -13.04 16.84 -14.24 14.81 C-15.6 12.61 -16.79 11.85 -19.27 11.14 C-24.26 10.58 -29.95 10.3 -34.27 13.14 C-35.63 15.66 -35.63 15.66 -36.27 18.14 C-30.09 25.65 -18.74 27.73 -9.82 30.49 C-3.13 32.64 2.86 34.81 6.54 41.2 C6.94 41.87 7.34 42.54 7.75 43.23 C10.81 49.17 10.72 56.96 9.2 63.37 C6.33 70.43 1.46 74.87 -5.27 78.14 C-11.13 80.25 -16.5 80.47 -22.64 80.45 C-23.54 80.47 -24.43 80.48 -25.36 80.5 C-36.77 80.51 -44.66 76.55 -53.27 69.14 C-56.93 65 -58.41 60.95 -58.33 55.45 C-58.32 54.64 -58.31 53.83 -58.3 53 C-58.29 52.39 -58.28 51.77 -58.27 51.14 C-54.96 49.48 -51.28 50.04 -47.64 50.07 C-46.44 50.08 -46.44 50.08 -45.21 50.09 C-43.23 50.1 -41.25 50.12 -39.27 50.14 C-39.01 50.72 -38.76 51.3 -38.49 51.9 C-36.49 56.4 -34.99 59.13 -30.27 61.14 C-24.33 63.39 -18 62.43 -12.27 60.14 C-11.12 55.45 -11.12 55.45 -12.42 51.01 C-14.7 48.69 -16.4 48.18 -19.53 47.36 C-20.57 47.07 -21.61 46.79 -22.67 46.49 C-24.3 46.07 -24.3 46.07 -25.96 45.64 C-35.36 43.14 -43.78 40.82 -51.14 34.2 C-51.88 33.55 -52.62 32.9 -53.39 32.23 C-57.65 27.48 -57.77 22.41 -57.64 16.27 C-56.84 9.5 -53.92 4.1 -48.64 -0.24 C-34.55 -9.66 -13.68 -11.23 0 0 Z " fill="#ECE4C7" transform="translate(745.26953125,844.86328125)"/>
<path d="M0 0 C1.96 -0.05 1.96 -0.05 3.97 -0.09 C7.5 0.5 7.5 0.5 9.5 2.48 C12.03 6.31 13.46 10.17 14.97 14.49 C15.29 15.37 15.6 16.26 15.93 17.17 C16.96 20.05 17.98 22.93 19 25.81 C20.42 29.8 21.85 33.78 23.28 37.77 C23.64 38.76 23.99 39.75 24.36 40.78 C26.59 47.01 28.87 53.23 31.22 59.42 C31.5 60.17 31.78 60.92 32.08 61.69 C33.14 64.5 34.21 67.3 35.28 70.11 C36.01 71.99 36.72 73.87 37.44 75.75 C37.84 76.8 38.24 77.84 38.65 78.92 C39.5 81.5 39.5 81.5 39.5 84.5 C36.4 84.65 33.29 84.73 30.19 84.81 C29.31 84.85 28.43 84.9 27.52 84.94 C25.08 84.99 22.89 84.97 20.5 84.5 C18.5 82.18 18.5 82.18 17.5 79.5 C16.94 78.45 16.39 77.4 15.81 76.31 C14.5 73.5 14.5 73.5 14.5 71.5 C-0.85 72 -0.85 72 -16.5 72.5 C-17.49 75.47 -18.48 78.44 -19.5 81.5 C-19.83 82.49 -20.16 83.48 -20.5 84.5 C-26.77 84.5 -33.04 84.5 -39.5 84.5 C-40.68 80.97 -40.28 80.2 -39.03 76.8 C-38.68 75.84 -38.33 74.88 -37.97 73.9 C-37.58 72.86 -37.19 71.82 -36.79 70.75 C-36.4 69.67 -36 68.58 -35.59 67.47 C-34.3 63.96 -32.99 60.45 -31.69 56.94 C-30.8 54.55 -29.92 52.16 -29.04 49.77 C-27.31 45.1 -25.58 40.44 -23.84 35.77 C-22.17 31.31 -20.52 26.85 -18.89 22.38 C-17.79 19.4 -16.68 16.42 -15.56 13.44 C-15.19 12.43 -14.82 11.41 -14.44 10.37 C-14.1 9.47 -13.76 8.58 -13.41 7.65 C-13.13 6.91 -12.86 6.17 -12.57 5.4 C-9.64 0.19 -5.59 0.04 0 0 Z " fill="#ECE3C6" transform="translate(891.5,838.5)"/>
<path d="M0 0 C0.79 -0 1.57 -0 2.38 -0 C4.04 0 5.7 0.01 7.36 0.03 C9.9 0.05 12.43 0.05 14.97 0.04 C16.58 0.05 18.2 0.05 19.81 0.06 C20.57 0.06 21.33 0.06 22.11 0.06 C28.87 0.15 28.87 0.15 31.97 2.36 C33.41 5.23 33.1 7.74 33.1 10.93 C33.1 12.69 33.1 12.69 33.11 14.49 C32.97 17.36 32.97 17.36 31.97 18.36 C29.65 18.68 27.33 18.88 25 19.08 C22.98 19.15 22.98 19.15 21.97 20.36 C21.85 21.84 21.79 23.31 21.77 24.79 C21.75 25.73 21.73 26.67 21.71 27.64 C21.68 29.18 21.68 29.18 21.66 30.74 C21.64 31.78 21.61 32.83 21.59 33.9 C21.53 37.24 21.47 40.58 21.41 43.93 C21.37 46.19 21.32 48.45 21.28 50.71 C21.17 56.26 21.07 61.81 20.97 67.36 C22.15 67.44 22.15 67.44 23.34 67.51 C24.86 67.62 24.86 67.62 26.41 67.74 C27.42 67.81 28.43 67.88 29.47 67.95 C30.3 68.09 31.12 68.22 31.97 68.36 C33.5 71.41 33.12 74.58 33.1 77.93 C33.1 78.97 33.1 78.97 33.11 80.04 C33.1 85.24 33.1 85.24 31.97 86.36 C29.05 86.48 26.15 86.53 23.23 86.53 C22.35 86.53 21.47 86.54 20.57 86.54 C18.7 86.55 16.84 86.55 14.97 86.55 C12.12 86.55 9.26 86.57 6.41 86.59 C4.6 86.59 2.79 86.59 0.98 86.59 C-0.3 86.6 -0.3 86.6 -1.61 86.62 C-2.41 86.61 -3.21 86.61 -4.03 86.61 C-4.73 86.61 -5.43 86.61 -6.15 86.61 C-8.03 86.36 -8.03 86.36 -11.03 84.36 C-11.43 81.43 -11.43 81.43 -11.4 77.93 C-11.41 76.77 -11.42 75.62 -11.43 74.43 C-11.03 71.36 -11.03 71.36 -10 69.45 C-8.03 68.36 -8.03 68.36 -0.03 68.36 C-0.36 52.19 -0.69 36.02 -1.03 19.36 C-4.33 18.7 -7.63 18.04 -11.03 17.36 C-11.11 15.09 -11.17 12.82 -11.21 10.55 C-11.25 9.29 -11.28 8.02 -11.32 6.72 C-11.03 3.36 -11.03 3.36 -10.01 1.68 C-6.89 -0.39 -3.61 -0.04 0 0 Z " fill="#F3A613" transform="translate(355.02734375,838.63671875)"/>
<path d="M0 0 C0.78 0.16 1.55 0.31 2.35 0.48 C7.71 1.69 13.27 3.29 17.94 6.25 C19 9.5 19 9.5 18.94 12.25 C14.3 13.42 9.81 13.4 5.06 13.43 C3.27 13.45 1.48 13.47 -0.32 13.49 C-1.72 13.51 -1.72 13.51 -3.16 13.52 C-58.76 14.28 -120.77 27.68 -167.06 60.25 C-167.72 59.92 -168.38 59.59 -169.06 59.25 C-168.41 58.84 -167.76 58.43 -167.09 58.01 C-166.26 57.47 -165.42 56.93 -164.56 56.38 C-163.73 55.84 -162.89 55.31 -162.03 54.76 C-161.38 54.26 -160.73 53.76 -160.06 53.25 C-160.06 52.59 -160.06 51.93 -160.06 51.25 C-158.65 50.06 -158.65 50.06 -156.65 48.75 C-155.92 48.26 -155.18 47.77 -154.43 47.27 C-153.63 46.75 -152.83 46.22 -152 45.69 C-151.17 45.15 -150.35 44.6 -149.5 44.05 C-147.03 42.44 -144.55 40.84 -142.06 39.25 C-141.44 38.85 -140.82 38.45 -140.17 38.03 C-110.84 19.29 -78.54 4.81 -44.06 -0.75 C-43.01 -0.93 -41.95 -1.12 -40.86 -1.31 C-27.41 -2.87 -13.28 -2.68 0 0 Z " fill="#F3A613" transform="translate(623.0625,333.75)"/>
<path d="M0 0 C0.99 0.66 1.98 1.32 3 2 C3.34 4.47 3.49 6.71 3.51 9.2 C3.53 9.9 3.55 10.61 3.57 11.34 C3.62 13.6 3.65 15.86 3.69 18.12 C3.72 19.66 3.76 21.19 3.79 22.72 C3.88 26.48 3.94 30.24 4 34 C6.62 34 7.46 33.03 9.56 31.5 C14.1 28.6 17.73 28.14 23 29 C28.81 30.82 31.99 34.89 35 40 C37.26 46.32 37.24 55.71 34.94 62 C31.93 66.66 28.32 70.23 23 72 C16.36 72.78 12.51 71.68 7 68 C5.67 67.32 4.34 66.65 3 66 C3.33 67.32 3.66 68.64 4 70 C2.33 70.04 0.67 70.04 -1 70 C-2.83 68.17 -2.14 65.23 -2.15 62.77 C-2.15 62.12 -2.15 61.47 -2.16 60.8 C-2.16 58.64 -2.17 56.48 -2.17 54.32 C-2.17 52.82 -2.17 51.32 -2.18 49.83 C-2.18 46.69 -2.19 43.55 -2.19 40.41 C-2.19 36.38 -2.2 32.35 -2.22 28.32 C-2.23 25.23 -2.23 22.14 -2.23 19.05 C-2.23 17.56 -2.23 16.08 -2.24 14.59 C-2.25 12.51 -2.25 10.44 -2.24 8.36 C-2.24 7.18 -2.25 6 -2.25 4.78 C-2 2 -2 2 0 0 Z " fill="#ECE3C6" transform="translate(742,943)"/>
<path d="M0 0 C5.13 2.57 9.57 6.44 11.75 11.88 C14.05 20.06 13.43 27.29 10 35 C7.33 39.24 4.72 41.31 0 43 C-6.58 43.98 -10.58 42.72 -16 39 C-17.32 38.01 -18.64 37.02 -20 36 C-20.33 44.25 -20.66 52.5 -21 61 C-22.65 60.67 -24.3 60.34 -26 60 C-26.07 52.75 -26.12 45.5 -26.16 38.25 C-26.17 34.88 -26.19 31.52 -26.23 28.15 C-26.26 24.28 -26.28 20.41 -26.29 16.54 C-26.31 15.33 -26.32 14.12 -26.34 12.88 C-26.34 11.76 -26.34 10.64 -26.34 9.48 C-26.35 8.49 -26.35 7.5 -26.36 6.49 C-25.95 3.62 -25.24 2.75 -23 1 C-22.34 1.33 -21.68 1.66 -21 2 C-20.38 4.06 -20.38 4.06 -20 6 C-17.44 4.77 -15.19 3.46 -12.81 1.88 C-8.61 -0.52 -4.74 -0.85 0 0 Z " fill="#ECE3C6" transform="translate(652,972)"/>
<path d="M0 0 C1.32 0.66 2.64 1.32 4 2 C4.41 8.12 3 12.74 0.88 18.44 C0.56 19.32 0.24 20.21 -0.09 21.12 C-1.52 25.11 -3.01 29.07 -4.62 32.98 C-17.02 63.6 -17.34 97.81 -8.65 129.46 C-7.93 132.29 -7.45 135.12 -7 138 C-7.66 137.34 -8.32 136.68 -9 136 C-9 135.01 -9 134.02 -9 133 C-9.66 133 -10.32 133 -11 133 C-26.59 102.09 -33.19 70.03 -22.81 36.38 C-17.86 22.41 -10.62 10.41 0 0 Z " fill="#F3A613" transform="translate(411,574)"/>
<path d="M0 0 C4.91 3.53 8.87 8.99 9.88 15.06 C10.36 22.25 10.81 28.85 6.88 35.06 C2.69 39.4 -0.97 42.11 -7.12 42.56 C-13.63 42.56 -17.99 38.7 -23.12 35.06 C-23.12 43.31 -23.12 51.56 -23.12 60.06 C-24.77 59.73 -26.42 59.4 -28.12 59.06 C-28.12 40.25 -28.12 21.44 -28.12 2.06 C-26.8 1.4 -25.49 0.74 -24.12 0.06 C-23.13 1.71 -22.14 3.36 -21.12 5.06 C-20.4 4.44 -19.68 3.83 -18.94 3.19 C-12.97 -1.32 -7.12 -2.14 0 0 Z " fill="#ECE3C6" transform="translate(965.125,972.9375)"/>
<path d="M0 0 C4.09 1.74 6.53 4.39 8.78 8.19 C10.85 13.95 10.83 20.07 9.81 26.06 C7.33 30.94 4.99 33.25 -0.19 35.06 C-3.31 35.52 -6.41 35.66 -9.56 35.75 C-12.41 35.85 -15.25 35.96 -18.19 36.06 C-18.19 45.63 -18.19 55.2 -18.19 65.06 C-19.84 65.06 -21.49 65.06 -23.19 65.06 C-24.19 64.06 -24.19 64.06 -24.31 61.51 C-24.31 60.38 -24.3 59.24 -24.3 58.07 C-24.3 56.79 -24.3 55.51 -24.3 54.19 C-24.3 52.78 -24.29 51.37 -24.29 49.96 C-24.28 48.53 -24.28 47.1 -24.28 45.66 C-24.28 41.88 -24.27 38.11 -24.26 34.33 C-24.25 30.47 -24.24 26.62 -24.24 22.76 C-24.23 15.2 -24.21 7.63 -24.19 0.06 C-18.18 -2.94 -6.42 -1.64 0 0 Z " fill="#ECE4C7" transform="translate(217.1875,947.9375)"/>
<path d="M0 0 C0.7 0.91 1.4 1.81 2.12 2.75 C2.89 3.55 3.65 4.36 4.44 5.19 C7.14 10.9 6.83 16.55 6.12 22.75 C4.02 27.96 0.44 30.35 -4.44 32.84 C-9.83 34.86 -14.25 34.29 -19.62 32.5 C-25.77 29.19 -28.72 26.55 -30.88 19.75 C-31.86 12.9 -29.89 7.71 -26 2 C-19 -5.41 -8.09 -6.33 0 0 Z " fill="#ECE4C7" transform="translate(650.875,376.25)"/>
<path d="M0 0 C3.82 3.16 6.31 5.7 7.73 10.54 C8.06 14.1 8.06 14.1 8.1 17.98 C8.13 19.25 8.16 20.53 8.19 21.85 C7.65 26.13 6.44 28.22 3.73 31.54 C-1.78 35.21 -7.83 34.93 -14.27 34.54 C-19.16 33.51 -23.06 31.4 -26.27 27.54 C-29.35 22.08 -29.8 17 -28.25 10.97 C-26.19 5.84 -22.97 2.04 -18.13 -0.66 C-12 -3.04 -5.7 -3.66 0 0 Z " fill="#ECE4C7" transform="translate(673.2734375,429.4609375)"/>
<path d="M0 0 C4.85 4.02 8.36 7.71 9.13 14.19 C9.4 20.18 8.99 23.97 4.82 28.58 C4.06 29.53 3.29 30.48 2.51 31.45 C-1.81 34.82 -7.23 34.37 -12.46 34.2 C-17.99 33.28 -21.66 30.92 -25.18 26.58 C-27.76 21.3 -28.27 16.03 -26.49 10.39 C-23.72 4.28 -20.09 0.77 -13.8 -1.8 C-8.51 -2.71 -4.54 -2.96 0 0 Z " fill="#ECE4C7" transform="translate(683.1796875,476.421875)"/>
<path d="M0 0 C3.85 2.73 6.84 5.68 8.81 10 C9.31 14.95 9.31 14.95 9.81 20 C-5.53 20.5 -5.53 20.5 -21.19 21 C-19.43 30.17 -19.43 30.17 -13.44 35.25 C-9.94 36.41 -6.77 36.79 -3.19 36 C0.14 33.92 3.05 31.53 4.81 28 C5.8 28 6.79 28 7.81 28 C8.47 29.65 9.13 31.3 9.81 33 C4.57 38.39 0.88 42.08 -6.88 42.31 C-13.83 42.21 -18.68 39.84 -23.56 34.94 C-27.66 29.67 -28.62 23.63 -27.84 17.09 C-26.42 10.89 -24.14 6.09 -19.19 2 C-12.91 -1.67 -6.86 -2.15 0 0 Z " fill="#ECE4C7" transform="translate(1011.1875,973)"/>
<path d="M0 0 C3.85 2.73 6.84 5.68 8.81 10 C9.31 14.95 9.31 14.95 9.81 20 C-0.09 20.33 -9.99 20.66 -20.19 21 C-21.57 25.15 -20.24 27.08 -18.41 30.9 C-16.69 33.85 -15.44 34.91 -12.19 36 C-8.36 36.62 -4.84 36.93 -1.38 34.98 C0.43 33.53 0.43 33.53 2.81 31 C3.43 30.4 4.05 29.8 4.69 29.19 C5.06 28.8 5.43 28.4 5.81 28 C7.13 29.32 8.45 30.64 9.81 32 C2.12 41.54 2.12 41.54 -4.44 42.24 C-12.16 42.64 -16.99 40.49 -23 35.81 C-27.01 30.66 -28.54 25.46 -28.12 18.94 C-27.21 12.64 -25.08 7.4 -20.25 3.12 C-13.75 -1.39 -7.61 -2.39 0 0 Z " fill="#ECE3C6" transform="translate(526.1875,973)"/>
<path d="M0 0 C5.48 2.9 10.08 6.99 12 13 C12.84 17.49 12.93 21.24 10.75 25.35 C8.4 28.58 6.35 30.77 3 33 C-3.63 33.88 -10.15 34.33 -15.75 30.25 C-18.93 27.51 -20.7 24.88 -21.37 20.7 C-21.55 14.13 -20.13 10.11 -16 5 C-11.64 0.64 -6 -0.95 0 0 Z " fill="#ECE4C7" transform="translate(694,524)"/>
<path d="M0 0 C1.3 0.01 2.6 0.02 3.94 0.03 C5.31 0.05 6.68 0.08 8.05 0.11 C9.43 0.12 10.82 0.13 12.2 0.15 C15.59 0.18 18.98 0.23 22.36 0.29 C22.86 3.26 22.86 3.26 23.36 6.29 C22.61 6.32 21.86 6.34 21.08 6.37 C17.7 6.48 14.31 6.61 10.93 6.73 C9.74 6.77 8.56 6.81 7.34 6.85 C5.65 6.91 5.65 6.91 3.93 6.98 C2.89 7.01 1.85 7.05 0.77 7.09 C-1.59 7.03 -1.59 7.03 -2.64 8.29 C-2.71 11.16 -2.73 13.99 -2.7 16.86 C-2.69 17.66 -2.69 18.47 -2.69 19.3 C-2.67 21.3 -2.66 23.29 -2.64 25.29 C-0.12 26.55 1.78 26.5 4.59 26.61 C5.62 26.65 6.65 26.69 7.71 26.74 C8.8 26.78 9.88 26.81 10.99 26.86 C12.62 26.92 12.62 26.92 14.29 26.99 C16.98 27.09 19.67 27.19 22.36 27.29 C22.86 29.77 22.86 29.77 23.36 32.29 C22.61 32.32 21.86 32.34 21.08 32.37 C17.7 32.48 14.31 32.61 10.93 32.73 C9.74 32.77 8.56 32.81 7.34 32.85 C6.21 32.89 5.09 32.93 3.93 32.98 C2.37 33.03 2.37 33.03 0.77 33.09 C-1.59 33.03 -1.59 33.03 -2.64 34.29 C-2.74 36.13 -2.77 37.98 -2.77 39.82 C-2.77 40.94 -2.77 42.06 -2.77 43.22 C-2.77 44.4 -2.77 45.58 -2.76 46.79 C-2.77 47.97 -2.77 49.15 -2.77 50.37 C-2.77 51.49 -2.77 52.61 -2.77 53.76 C-2.77 54.8 -2.77 55.83 -2.77 56.9 C-2.91 59.25 -2.91 59.25 -1.64 60.29 C0.14 60.45 1.93 60.54 3.71 60.61 C4.79 60.65 5.87 60.69 6.98 60.74 C8.12 60.78 9.26 60.81 10.43 60.86 C11.57 60.9 12.71 60.94 13.88 60.99 C16.71 61.09 19.54 61.19 22.36 61.29 C22.86 63.77 22.86 63.77 23.36 66.29 C18.82 66.32 14.29 66.34 9.75 66.35 C8.2 66.35 6.66 66.36 5.11 66.37 C2.89 66.38 0.68 66.39 -1.54 66.39 C-2.58 66.4 -2.58 66.4 -3.64 66.41 C-5.31 66.41 -6.97 66.35 -8.64 66.29 C-10.41 64.52 -9.78 61.94 -9.8 59.54 C-9.81 58.3 -9.82 57.07 -9.83 55.8 C-9.83 54.45 -9.84 53.09 -9.84 51.74 C-9.85 50.36 -9.85 48.98 -9.86 47.59 C-9.87 44.69 -9.87 41.79 -9.88 38.89 C-9.88 35.17 -9.91 31.46 -9.93 27.74 C-9.95 24.88 -9.96 22.03 -9.96 19.17 C-9.96 17.8 -9.97 16.43 -9.98 15.06 C-10 13.14 -10 11.23 -9.99 9.31 C-10 8.22 -10 7.13 -10 6 C-9.64 3.29 -9.64 3.29 -8.3 1.44 C-5.63 -0.4 -3.19 -0.04 0 0 Z " fill="#ECE4C7" transform="translate(863.63671875,946.70703125)"/>
<path d="M0 0 C3.98 2.77 6.19 5.43 7.88 10 C8.74 15.27 9.2 20.48 6.66 25.32 C3.09 29.67 -0.22 31.81 -5.88 32.38 C-11.21 32.25 -15.82 30.06 -19.78 26.53 C-22.31 23.66 -23.12 20.58 -23.13 16.79 C-22.57 9.97 -20.39 5.49 -15.12 1 C-10.11 -1.71 -5.38 -1.72 0 0 Z " fill="#000000" transform="translate(405.125,978)"/>
<path d="M0 0 C3.95 1.56 6.29 3.92 8.27 7.71 C10.2 13.8 9.78 20.54 7.88 26.56 C4.68 30.72 1.78 32.74 -3.44 33.5 C-8.63 32.77 -12.22 30.9 -15.88 27 C-18.34 22.62 -18.63 17.95 -18 13 C-16.64 8.42 -15.22 4.93 -11.38 2 C-10.59 1.67 -9.81 1.34 -9 1 C-5.94 -0.53 -3.38 -0.23 0 0 Z " fill="#000000" transform="translate(597,977)"/>
<path d="M0 0 C3.55 1.32 5.37 3.15 7.31 6.31 C9.98 12.24 10.02 18.66 9 25 C7.06 28.66 4.7 31.15 1 33 C-4.81 33.6 -8.46 32.98 -13.3 29.62 C-17.12 25.98 -17.79 21.62 -18.44 16.56 C-17.86 11.88 -16.5 8.01 -14 4 C-11.38 2 -11.38 2 -9 1 C-5.94 -0.53 -3.38 -0.23 0 0 Z " fill="#000000" transform="translate(763,977)"/>
<path d="M0 0 C4.65 2.86 6.89 5.63 8.53 10.82 C9.97 17.49 9.41 23 6 29 C3.09 32.25 1.53 32.92 -2.81 33.56 C-7.72 33.29 -11.33 31.18 -15 28 C-18.63 23.12 -18.82 17.87 -18 12 C-16.46 7.32 -14.44 3.43 -10 1 C-6.35 -0.22 -3.84 -0.39 0 0 Z " fill="#000000" transform="translate(650,977)"/>
<path d="M0 0 C3.78 3.78 5.1 6.88 5.69 12.19 C5.47 17.52 3.11 21.18 -0.44 25.12 C-5.48 27.58 -10.18 27.72 -15.5 26.12 C-19.92 23.57 -23.11 21.17 -24.75 16.25 C-25.17 10.77 -24.42 7.06 -21.75 2.25 C-19.19 -0.69 -16.57 -2.49 -12.81 -3.69 C-7.87 -3.79 -4.16 -2.65 0 0 Z " fill="#ECE4C7" transform="translate(716.75,572.75)"/>
<path d="M0 0 C4.02 3.47 5.52 6.74 6.25 12 C6.43 23.57 6.43 23.57 2.88 27.75 C-0.52 30.95 -3.25 31.86 -8.02 31.78 C-12.33 31 -15.32 28.53 -18.25 25.38 C-21.07 20.93 -21.77 16.54 -20.82 11.39 C-19.39 6.32 -17.81 2.48 -13.44 -0.62 C-8.29 -2.24 -4.88 -2.44 0 0 Z " fill="#000000" transform="translate(963.25,978.625)"/>
<path d="M0 0 C2.83 2.83 2.35 5.62 2.41 9.41 C2.43 10.14 2.45 10.87 2.47 11.63 C2.53 13.96 2.58 16.29 2.62 18.62 C2.66 20.21 2.7 21.79 2.74 23.37 C2.84 27.24 2.92 31.12 3 35 C3.66 35 4.32 35 5 35 C5.33 34.01 5.66 33.02 6 32 C11.22 29.07 16.04 28.15 22 29 C26.2 30.66 27.74 33.11 30 37 C31.22 40.56 31.11 44 31.1 47.73 C31.09 49.03 31.09 50.33 31.09 51.66 C31.08 53.02 31.07 54.39 31.06 55.75 C31.06 57.13 31.05 58.51 31.05 59.89 C31.04 63.26 31.02 66.63 31 70 C29.33 70.04 27.67 70.04 26 70 C24.2 68.2 24.85 65.42 24.82 62.99 C24.8 61.76 24.78 60.52 24.75 59.25 C24.71 56.65 24.68 54.04 24.66 51.43 C24.68 42.32 24.68 42.32 20 35 C14.49 34.2 10.69 34.76 6 38 C2.26 44.58 2.87 52.54 2.94 59.88 C2.94 60.85 2.95 61.82 2.95 62.83 C2.96 65.22 2.98 67.61 3 70 C1.33 70.04 -0.33 70.04 -2 70 C-3.82 68.18 -3.15 65.32 -3.16 62.88 C-3.17 61.56 -3.18 60.25 -3.19 58.9 C-3.2 57.46 -3.2 56.01 -3.2 54.57 C-3.21 53.1 -3.21 51.63 -3.22 50.16 C-3.23 47.07 -3.24 43.98 -3.24 40.89 C-3.25 36.93 -3.27 32.97 -3.3 29.01 C-3.32 25.97 -3.32 22.93 -3.32 19.89 C-3.33 18.43 -3.33 16.97 -3.35 15.51 C-3.36 13.47 -3.36 11.43 -3.36 9.38 C-3.36 8.22 -3.36 7.06 -3.37 5.86 C-3 3 -3 3 -1.48 1.1 C-0.99 0.74 -0.5 0.37 0 0 Z " fill="#ECE3C6" transform="translate(241,943)"/>
<path d="M0 0 C0.64 0.54 1.28 1.07 1.94 1.62 C1.94 2.28 1.94 2.95 1.94 3.62 C2.93 3.96 3.92 4.28 4.94 4.62 C5.93 2.98 6.92 1.33 7.94 -0.38 C8.93 -0.04 9.92 0.28 10.94 0.62 C11.27 13.5 11.6 26.37 11.94 39.62 C10.29 39.62 8.64 39.62 6.94 39.62 C6.28 38.3 5.62 36.99 4.94 35.62 C4.17 36.43 3.41 37.23 2.62 38.06 C-1.27 41.78 -4.5 41.98 -9.65 41.9 C-15.04 41.28 -19.34 38.75 -22.94 34.75 C-27.07 28.68 -27.95 22.84 -27.06 15.62 C-25.03 9.02 -22 3.3 -15.88 -0.19 C-10.24 -1.94 -5.46 -2.45 0 0 Z M-16.06 6.62 C-17.89 8.95 -17.89 8.95 -19.06 11.62 C-19.45 12.39 -19.85 13.15 -20.25 13.94 C-21.83 19.15 -21.49 23.29 -19.88 28.38 C-17.4 32.82 -14.88 35.02 -10.06 36.62 C-5.91 37.02 -3.57 36.88 0.19 35 C4.22 31.52 5.66 28.96 6.29 23.63 C6.57 17.15 6.16 12.5 2.42 7.11 C-0.32 4.36 -2.59 3.67 -6.44 3.31 C-10.45 3.66 -12.71 4.41 -16.06 6.62 Z " fill="#ECE4C7" transform="translate(600.0625,973.375)"/>
<path d="M0 0 C0.99 0.33 1.98 0.66 3 1 C3.49 7.93 3.49 7.93 4 15 C6.31 15.66 8.62 16.32 11 17 C11 18.32 11 19.64 11 21 C8.69 21.66 6.38 22.32 4 23 C3.67 33.89 3.34 44.78 3 56 C1.35 55.67 -0.3 55.34 -2 55 C-2.33 44.11 -2.66 33.22 -3 22 C-9.05 20.79 -13.6 19.94 -19.25 22.44 C-24.31 27.15 -26.15 32.87 -26.61 39.69 C-26.67 41.65 -26.72 43.61 -26.75 45.56 C-26.78 46.57 -26.81 47.58 -26.84 48.62 C-26.91 51.08 -26.96 53.54 -27 56 C-28.65 55.67 -30.3 55.34 -32 55 C-32 42.46 -32 29.92 -32 17 C-30.68 16.67 -29.36 16.34 -28 16 C-27.01 17.98 -26.02 19.96 -25 22 C-24.26 21.22 -23.52 20.43 -22.75 19.62 C-19.17 16.2 -17.58 14.99 -12.55 15.02 C-11.29 15.14 -10.04 15.26 -8.75 15.38 C-7.49 15.49 -6.22 15.6 -4.92 15.71 C-3.96 15.81 -2.99 15.9 -2 16 C-2.02 15.01 -2.05 14.03 -2.07 13.01 C-2.09 11.73 -2.11 10.45 -2.12 9.12 C-2.15 7.85 -2.17 6.57 -2.2 5.26 C-2 2 -2 2 0 0 Z " fill="#EBE3C5" transform="translate(1065,957)"/>
<path d="M0 0 C2.48 0.5 2.48 0.5 5 1 C5.33 12.55 5.66 24.1 6 36 C6.99 34.35 7.98 32.7 9 31 C14.21 28.04 18.17 27.44 24 28 C28.61 29.89 30.59 32.71 33 37 C33.45 40.62 33.45 40.62 33.39 44.59 C33.38 45.29 33.38 45.99 33.37 46.71 C33.35 48.93 33.3 51.15 33.25 53.38 C33.23 54.89 33.21 56.4 33.2 57.92 C33.15 61.61 33.08 65.31 33 69 C31.35 68.67 29.7 68.34 28 68 C27.99 67.21 27.97 66.43 27.96 65.62 C27.88 62.04 27.78 58.46 27.69 54.88 C27.66 53.64 27.64 52.4 27.62 51.12 C27.57 49.33 27.57 49.33 27.51 47.49 C27.47 45.84 27.47 45.84 27.43 44.16 C26.94 40.57 25.86 38.1 24 35 C20.79 33.4 17.49 33.66 14 34 C11.07 34.76 11.07 34.76 9 37 C5.74 43.74 5.47 50.71 5.31 58.06 C5.28 59.12 5.24 60.18 5.21 61.26 C5.13 63.84 5.06 66.42 5 69 C3.35 68.67 1.7 68.34 0 68 C0 45.56 0 23.12 0 0 Z " fill="#ECE4C7" transform="translate(454,944)"/>
<path d="M0 0 C5.76 3.26 9.85 8.26 12.79 14.16 C12.94 16.42 13.01 18.7 13.04 20.97 C13.07 22.19 13.09 23.42 13.12 24.68 C12.55 30.71 9.27 34.28 4.79 38.16 C-0.6 41.79 -5.73 43.38 -12.21 42.16 C-20.33 39.38 -25.81 34.95 -29.64 27.28 C-30.96 19.96 -29.42 13.28 -25.21 7.16 C-18.44 0.39 -9.38 -3.59 0 0 Z M-22.21 12.16 C-24.73 17.21 -24.4 21.78 -23.21 27.16 C-21.27 31.74 -18.45 33.68 -14.21 36.16 C-10.48 37.4 -7.08 37.69 -3.21 37.16 C1.18 34.88 4.03 32.23 6.79 28.16 C7.91 22.12 7.77 15.93 4.67 10.53 C2.18 7.21 -0.2 5.44 -4.21 4.16 C-12.1 3.31 -17.19 6.17 -22.21 12.16 Z " fill="#ECE4C7" transform="translate(406.20703125,972.84375)"/>
<path d="M0 0 C0.99 0 1.98 0 3 0 C5.86 5.29 8.12 10.7 10.25 16.31 C10.66 17.37 10.66 17.37 11.07 18.45 C12.18 21.44 13 23.79 13 27 C13.66 27 14.32 27 15 27 C15.33 27.66 15.66 28.32 16 29 C16.26 28.23 16.51 27.46 16.78 26.66 C17.95 23.17 19.13 19.68 20.31 16.19 C20.72 14.97 21.12 13.76 21.54 12.51 C21.93 11.34 22.33 10.18 22.74 8.98 C23.1 7.91 23.46 6.83 23.83 5.73 C24.94 3.14 25.86 1.77 28 0 C28.99 0.33 29.98 0.66 31 1 C29.56 8.16 27.47 14.92 25.09 21.82 C24.71 22.91 24.34 24.01 23.95 25.14 C22.76 28.62 21.57 32.09 20.38 35.56 C19.56 37.93 18.75 40.3 17.95 42.67 C15.97 48.45 13.99 54.22 12 60 C10.35 60 8.7 60 7 60 C6.67 59.34 6.34 58.68 6 58 C7.2 54.57 8.58 51.23 9.97 47.87 C13.22 37.65 7.27 27.1 3.57 17.7 C2.79 15.72 2.03 13.73 1.27 11.73 C0.58 9.97 0.58 9.97 -0.12 8.18 C-1.02 4.91 -0.99 3.2 0 0 Z " fill="#ECE4C7" transform="translate(673,973)"/>
<path d="M0 0 C0.99 0.66 1.98 1.32 3 2 C1.11 9.23 -1.03 16.3 -3.5 23.34 C-3.99 24.73 -3.99 24.73 -4.49 26.16 C-5.16 28.1 -5.84 30.04 -6.53 31.98 C-7.57 34.95 -8.6 37.93 -9.64 40.9 C-10.3 42.8 -10.97 44.69 -11.63 46.59 C-11.94 47.48 -12.25 48.36 -12.56 49.27 C-12.85 50.1 -13.14 50.92 -13.44 51.77 C-13.7 52.5 -13.95 53.22 -14.21 53.96 C-15.02 56.05 -15.97 58.01 -17 60 C-18.65 59.67 -20.3 59.34 -22 59 C-21.81 58.31 -21.61 57.62 -21.41 56.91 C-21.15 55.97 -20.89 55.03 -20.62 54.06 C-20.37 53.15 -20.11 52.23 -19.85 51.29 C-19.57 50.2 -19.29 49.12 -19 48 C-18.8 47.35 -18.59 46.69 -18.38 46.02 C-16.69 39.92 -17.34 36.1 -19.68 30.32 C-19.98 29.53 -20.27 28.75 -20.57 27.95 C-21.51 25.48 -22.47 23.02 -23.44 20.56 C-24.4 18.08 -25.35 15.59 -26.29 13.1 C-26.88 11.56 -27.47 10.02 -28.08 8.48 C-28.78 6.68 -29.4 4.84 -30 3 C-29.67 2.34 -29.34 1.68 -29 1 C-26.62 1.23 -26.62 1.23 -24 2 C-22.81 3.83 -22.81 3.83 -22 6.25 C-21.69 7.14 -21.37 8.04 -21.05 8.96 C-20.7 9.96 -20.36 10.97 -20 12 C-19.09 14.31 -18.17 16.63 -17.25 18.94 C-15 24.62 -15 24.62 -15 28 C-14.01 28 -13.02 28 -12 28 C-11.74 27.22 -11.49 26.45 -11.22 25.65 C-10.05 22.13 -8.87 18.63 -7.69 15.12 C-7.28 13.9 -6.88 12.68 -6.46 11.42 C-6.07 10.25 -5.67 9.08 -5.26 7.88 C-4.72 6.26 -4.72 6.26 -4.17 4.61 C-3 2 -3 2 0 0 Z " fill="#ECE4C7" transform="translate(311,973)"/>
<path d="M0 0 C2.74 1.89 3.25 3.66 4.38 6.77 C4.77 7.84 5.17 8.91 5.57 10.01 C6.17 11.69 6.17 11.69 6.77 13.4 C7.18 14.52 7.59 15.64 8.02 16.79 C11.02 25.05 11.02 25.05 11.02 27.4 C12.01 27.07 13 26.74 14.02 26.4 C15.29 23.81 15.29 23.81 16.28 20.61 C16.88 18.86 16.88 18.86 17.49 17.07 C17.89 15.84 18.29 14.6 18.71 13.34 C19.13 12.1 19.54 10.86 19.97 9.59 C21 6.53 22.01 3.47 23.02 0.4 C25.5 0.89 25.5 0.89 28.02 1.4 C27.41 7.87 25.4 13.62 23.24 19.73 C22.87 20.8 22.49 21.88 22.11 22.98 C20.92 26.39 19.72 29.8 18.52 33.21 C17.72 35.52 16.91 37.83 16.1 40.15 C13.16 48.58 13.16 48.58 11.68 52.78 C11.38 53.63 11.09 54.47 10.78 55.34 C10.02 57.4 10.02 57.4 9.02 59.4 C7.37 59.07 5.72 58.74 4.02 58.4 C4.5 56.63 4.98 54.86 5.46 53.09 C5.73 52.1 5.99 51.11 6.27 50.1 C6.8 48.18 7.39 46.28 8.02 44.4 C8.39 38.35 7.52 33.88 5.4 28.25 C5.13 27.51 4.86 26.77 4.59 26.01 C3.75 23.68 2.89 21.35 2.02 19.02 C1.16 16.67 0.31 14.32 -0.55 11.97 C-1.08 10.51 -1.61 9.06 -2.15 7.6 C-3.98 2.62 -3.98 2.62 -3.98 0.4 C-1.98 -0.6 -1.98 -0.6 0 0 Z " fill="#ECE3C6" transform="translate(788.9775390625,973.6015625)"/>
<path d="M0 0 C3.74 2.54 5.66 5.28 6.54 9.73 C6.78 14.56 6.65 17.14 3.69 21.06 C-1 24.44 -3.14 25.59 -9 25 C-13.2 23.33 -16.85 21.07 -19 17 C-20.17 13.85 -20.32 11.9 -19.19 8.72 C-17.17 4.63 -15.58 2.37 -11.69 -0.12 C-7.39 -1.15 -4.17 -1.62 0 0 Z " fill="#ECE4C7" transform="translate(723,613)"/>
<path d="M0 0 C3.63 1.62 4.77 2.66 7 6 C6.62 8.19 6.62 8.19 6 10 C3.03 8.88 0.67 7.78 -2 6 C-5.57 6.08 -5.57 6.08 -9 7 C-11.15 10.23 -11.2 11.28 -11 15 C-10.44 15.16 -9.89 15.32 -9.31 15.48 C-2.57 17.54 3.98 19.97 8 26 C8.8 31.41 9 35.65 5.69 40.12 C0.75 43.57 -4.16 43.66 -10 43 C-13.54 41.64 -16.31 39.69 -19 37 C-18.81 34.94 -18.81 34.94 -18 33 C-16.52 32.5 -16.52 32.5 -15 32 C-13.17 33 -13.17 33 -11.19 34.44 C-7.65 36.79 -5.34 37.72 -1 37 C1.28 35.13 1.28 35.13 1.38 32.12 C1.24 29.03 1.24 29.03 -0.38 26.94 C-2.85 25.11 -5.17 23.89 -7.94 22.56 C-15.44 18.89 -15.44 18.89 -18 15 C-18.43 10.57 -17.85 7.15 -15.19 3.56 C-10.15 -0.03 -6.12 -0.72 0 0 Z " fill="#ECE4C7" transform="translate(1100,972)"/>
<path d="M0 0 C2.59 1.6 3.57 3.4 4.84 6.13 C4.51 7.12 4.18 8.11 3.84 9.13 C1.23 8.65 -0.27 8.06 -2.47 6.51 C-6.05 4.68 -8.32 5.3 -12.16 6.13 C-12.49 8.44 -12.82 10.75 -13.16 13.13 C-12.01 13.71 -10.85 14.29 -9.66 14.88 C-8.57 15.43 -8.57 15.43 -7.46 16 C-5.97 16.73 -4.47 17.44 -2.95 18.11 C0.22 19.55 2.47 20.73 4.84 23.32 C6.27 27.33 6.53 30.93 5.84 35.13 C4.08 38.19 2.65 39.64 -0.35 41.45 C-5.84 42.79 -10.94 43.12 -16.04 40.38 C-18.75 38.43 -20.44 36.96 -22.16 34.13 C-21.17 33.14 -20.18 32.15 -19.16 31.13 C-16.9 32.22 -14.86 33.34 -12.79 34.76 C-9.63 36.41 -7.68 36.51 -4.16 36.13 C-3.17 35.47 -2.18 34.81 -1.16 34.13 C-0.58 31.22 -0.58 31.22 -1.16 28.13 C-4.03 24.64 -7.16 22.96 -11.22 21.07 C-19.21 17.35 -19.21 17.35 -21.1 12.95 C-21.19 8.67 -19.62 5.58 -17.16 2.13 C-12.26 -1.51 -5.71 -2.29 0 0 Z " fill="#ECE4C7" transform="translate(341.16015625,972.8671875)"/>
<path d="M0 0 C1.04 0.07 2.08 0.13 3.14 0.2 C7.38 0.96 10.12 2.58 13 5.75 C14.83 10.38 14.87 14.84 14.19 19.75 C12.09 23.37 11.14 24.43 7.19 25.75 C4.81 25.84 2.44 25.88 0.06 25.88 C-1.83 25.88 -1.83 25.88 -3.76 25.88 C-6.81 25.75 -6.81 25.75 -7.81 24.75 C-7.9 22.97 -7.92 21.19 -7.91 19.4 C-7.91 18.32 -7.9 17.24 -7.9 16.13 C-7.89 14.99 -7.88 13.86 -7.88 12.69 C-7.87 11.55 -7.87 10.41 -7.86 9.23 C-7.85 6.4 -7.83 3.58 -7.81 0.75 C-5.06 -0.63 -3.06 -0.23 0 0 Z " fill="#000000" transform="translate(206.8125,952.25)"/>
<path d="M0 0 C2.25 -0.34 2.25 -0.34 5 0 C7.1 2.34 7.1 2.34 9.06 5.38 C12.15 10.22 12.15 10.22 17 13 C17.53 12.15 18.06 11.29 18.61 10.41 C19.32 9.31 20.02 8.2 20.75 7.06 C21.45 5.96 22.14 4.86 22.86 3.72 C25 1 25 1 27.08 -0 C29 0 29 0 32 2 C31.22 3.04 30.44 4.07 29.63 5.14 C28.61 6.51 27.58 7.88 26.56 9.25 C26.05 9.93 25.53 10.61 25 11.32 C24.5 11.98 24.01 12.64 23.5 13.33 C23.05 13.94 22.59 14.54 22.12 15.17 C20.9 17.17 20.28 18.67 20 21 C21.31 23.29 22.61 25.28 24.19 27.38 C24.99 28.49 25.8 29.6 26.61 30.71 C27 31.25 27.4 31.79 27.81 32.35 C29.61 34.85 31.31 37.42 33 40 C30.31 40.31 30.31 40.31 27 40 C22.85 36.66 19.92 32.42 17 28 C17 27.34 17 26.68 17 26 C12.48 27.51 10.87 31.51 8.49 35.43 C7.35 37.19 7.35 37.19 5 40 C2.21 40.4 2.21 40.4 0 40 C0 36.59 0.48 36.01 2.48 33.38 C2.98 32.69 3.49 32 4.01 31.29 C5.09 29.85 6.17 28.41 7.27 26.98 C10.31 23.08 10.31 23.08 10.62 18.41 C10.09 17.61 9.55 16.82 9 16 C8.29 14.94 7.57 13.87 6.84 12.77 C5.6 11.05 4.35 9.35 3.1 7.64 C0 3.31 0 3.31 0 0 Z " fill="#ECE3C6" transform="translate(896,973)"/>
<path d="M0 0 C5.75 4.99 5.75 4.99 6.27 9.24 C6.38 11.91 6.39 14.36 6 17 C2.93 20.31 0.26 21.83 -4.19 22.44 C-8.59 21.93 -10.52 20.92 -13.66 17.91 C-15.69 15.02 -15.9 12.72 -15.63 9.25 C-14.53 5.32 -12.13 2.56 -9 0 C-5.38 -1.21 -3.67 -1.03 0 0 Z " fill="#ECE4C7" transform="translate(721,650)"/>
<path d="M0 0 C0.99 0.33 1.98 0.66 3 1 C3.33 5.62 3.66 10.24 4 15 C6.31 15.66 8.62 16.32 11 17 C11 18.32 11 19.64 11 21 C8.69 21.66 6.38 22.32 4 23 C3.67 33.89 3.34 44.78 3 56 C1.35 55.67 -0.3 55.34 -2 55 C-2.33 44.11 -2.66 33.22 -3 22 C-4.98 21.34 -6.96 20.68 -9 20 C-9 19.01 -9 18.02 -9 17 C-5.54 16.5 -5.54 16.5 -2 16 C-2.02 15.01 -2.05 14.03 -2.07 13.01 C-2.1 11.09 -2.1 11.09 -2.12 9.12 C-2.15 7.85 -2.17 6.57 -2.2 5.26 C-2 2 -2 2 0 0 Z " fill="#ECE4C7" transform="translate(434,957)"/>
<path d="M0 0 C0.33 1.65 0.66 3.3 1 5 C-0.95 5.46 -2.91 5.91 -4.86 6.37 C-7.96 7.28 -10.32 8.04 -12.24 10.74 C-15.16 17.19 -15.65 23.04 -15.75 30.06 C-15.78 31.12 -15.81 32.18 -15.84 33.26 C-15.91 35.84 -15.96 38.42 -16 41 C-17.98 40.67 -19.96 40.34 -22 40 C-22.07 34.93 -22.13 29.86 -22.16 24.78 C-22.18 23.06 -22.2 21.33 -22.23 19.61 C-22.26 17.13 -22.28 14.65 -22.29 12.17 C-22.31 11.4 -22.32 10.62 -22.34 9.83 C-22.34 4.49 -22.34 4.49 -20.61 1.99 C-19 1 -19 1 -17 1 C-15.24 4.09 -15 5.23 -15 9 C-14.44 8.07 -13.89 7.14 -13.31 6.19 C-9.5 0.93 -6.46 -0.45 0 0 Z " fill="#ECE4C7" transform="translate(569,972)"/>
<path d="M0 0 C0.99 0.33 1.98 0.66 3 1 C3.98 2.99 3.98 2.99 4.82 5.59 C5.13 6.52 5.44 7.45 5.75 8.41 C6.06 9.39 6.37 10.37 6.69 11.38 C7.01 12.35 7.33 13.32 7.66 14.32 C10 21.55 10 21.55 10 25 C4.39 25 -1.22 25 -7 25 C-8.16 21.52 -7.81 20.75 -6.6 17.4 C-6.29 16.52 -5.97 15.64 -5.65 14.72 C-5.31 13.8 -4.97 12.89 -4.62 11.94 C-4.29 11.01 -3.97 10.09 -3.62 9.14 C-1.21 2.42 -1.21 2.42 0 0 Z " fill="#000000" transform="translate(890,867)"/>
<path d="M0 0 C0.66 0 1.32 0 2 0 C2.36 1.32 2.36 1.32 2.73 2.68 C4.65 9.54 6.71 16.24 9.27 22.89 C10 25 10 25 10 27 C4.39 27 -1.22 27 -7 27 C-8.23 23.3 -7.6 22.1 -6.35 18.46 C-5.98 17.38 -5.62 16.31 -5.24 15.21 C-4.66 13.53 -4.66 13.53 -4.06 11.81 C-3.68 10.68 -3.29 9.55 -2.89 8.38 C-1.94 5.59 -0.97 2.79 0 0 Z " fill="#000000" transform="translate(527,865)"/>
<path d="M0 0 C2.24 2.69 2.93 4.55 3.5 8 C2.81 12.16 1.39 13.55 -2 16 C-5.87 16.55 -8.24 16.3 -11.88 14.88 C-14 13 -14 13 -15 10.19 C-15 5.45 -13.32 2.32 -10 -1 C-6.26 -2.6 -3.59 -1.68 0 0 Z " fill="#ECE4C7" transform="translate(717,684)"/>
<path d="M0 0 C3.82 2.05 6.67 3.75 8 8 C8 9.32 8 10.64 8 12 C0.74 12 -6.52 12 -14 12 C-15 8 -15 8 -13.94 5.44 C-10.27 0.83 -5.8 -0.85 0 0 Z " fill="#000000" transform="translate(1006,977)"/>
<path d="M0 0 C4.78 3.56 4.97 4.83 6 11 C-1.26 11 -8.52 11 -16 11 C-17 6 -17 6 -15.38 3.31 C-10.73 -1.21 -6.11 -1.9 0 0 Z " fill="#000000" transform="translate(523,978)"/>
<path d="M0 0 C0.99 0.33 1.98 0.66 3 1 C3 13.87 3 26.74 3 40 C1.35 39.67 -0.3 39.34 -2 39 C-2 26.46 -2 13.92 -2 1 C-1.34 0.67 -0.68 0.34 0 0 Z " fill="#ECE4C7" transform="translate(361,973)"/>
<path d="M0 0 C4.02 6.21 4.02 6.21 3.94 9.81 C3 12 3 12 0 14 C-2.88 14.44 -2.88 14.44 -6 14 C-8.94 11.81 -8.94 11.81 -11 9 C-11.12 6.44 -11.12 6.44 -10 4 C-6.76 0.67 -4.66 -0.53 0 0 Z " fill="#ECE4C7" transform="translate(704,708)"/>
<path d="M0 0 C2.44 1.75 2.44 1.75 4.44 4.75 C4.11 8.07 3.83 9.36 1.44 11.75 C-2.9 12.07 -4.89 12.2 -8.56 9.75 C-9.5 8 -9.5 8 -9.56 5.75 C-5.05 -2.46 -5.05 -2.46 0 0 Z " fill="#ECE4C7" transform="translate(685.5625,729.25)"/>
<path d="M0 0 C2.69 1.5 2.69 1.5 5 4 C5.5 7.62 5.5 7.62 5 11 C2 13 2 13 -0.44 12.81 C-3.15 11.95 -4.85 10.83 -7 9 C-6.5 5.34 -5.98 3.29 -3 1 C-2.01 0.67 -1.02 0.34 0 0 Z " fill="#ECE4C7" transform="translate(667,747)"/>
<path d="M0 0 C2 3 2 3 1.62 5.69 C1.42 6.45 1.21 7.21 1 8 C-1.31 8.25 -1.31 8.25 -4 8 C-5.88 6.19 -5.88 6.19 -7 4 C-6.67 3.01 -6.34 2.02 -6 1 C-4 0 -4 0 0 0 Z " fill="#ECE4C7" transform="translate(364,954)"/>
</svg>
