<?xml version="1.0" encoding="UTF-8"?>
<!-- Generator: visioncortex VTracer 0.6.3 -->
<svg version="1.1" xmlns="http://www.w3.org/2000/svg" width="1280" height="1280">
<path d="M0 0 C1.31 -0 1.31 -0 2.65 -0.01 C3.61 -0.01 4.58 -0 5.57 -0 C6.58 -0 7.59 -0.01 8.63 -0.01 C11.99 -0.01 15.34 -0.01 18.7 -0.01 C21.02 -0.01 23.35 -0.01 25.67 -0.01 C30.55 -0.01 35.42 -0.01 40.3 -0 C46.56 0 52.82 -0 59.08 -0.01 C63.88 -0.01 68.69 -0.01 73.49 -0.01 C75.8 -0.01 78.1 -0.01 80.41 -0.01 C83.64 -0.01 86.86 -0.01 90.08 -0 C91.53 -0.01 91.53 -0.01 93 -0.01 C93.87 -0.01 94.75 -0 95.65 0 C96.79 0 96.79 0 97.96 0 C99.82 0.13 99.82 0.13 101.82 1.13 C104.6 1.29 107.36 1.41 110.14 1.5 C120.04 1.93 129.71 3.23 139.49 4.76 C141.58 5.09 143.67 5.39 145.76 5.7 C150.26 6.35 154.68 7.02 159.07 8.19 C161.85 8.88 164.09 9.28 166.89 9.5 C171.82 9.97 176.48 11.29 181.23 12.61 C186.4 14.04 191.56 15.16 196.82 16.13 C198.68 16.48 200.53 16.83 202.39 17.19 C203.21 17.35 204.04 17.5 204.89 17.66 C206.82 18.13 206.82 18.13 207.82 19.13 C209.15 19.48 210.48 19.78 211.82 20.06 C212.64 20.24 213.46 20.42 214.3 20.6 C215.89 20.93 217.48 21.25 219.07 21.56 C224.14 22.58 228.67 24.2 233.44 26.19 C236.06 27.22 238.71 27.88 241.45 28.51 C255.52 32.17 269.39 37.64 282.82 43.13 C284.45 43.77 286.07 44.42 287.7 45.06 C303.75 51.5 303.75 51.5 310.87 55.18 C312.96 56.19 315.08 57 317.26 57.81 C322.96 60.03 328.25 62.93 333.62 65.83 C338.6 68.51 343.6 70.94 348.82 73.13 C348.82 73.79 348.82 74.45 348.82 75.13 C349.56 75.24 350.29 75.35 351.04 75.46 C353.99 76.17 355.85 77.18 358.39 78.81 C362.11 81.14 365.86 83.17 369.82 85.06 C374.78 87.49 379.15 90.31 383.6 93.54 C385.94 95.21 388.37 96.61 390.88 97.99 C395.68 100.79 400.23 104 404.82 107.13 C405.45 107.55 406.07 107.97 406.71 108.41 C411.43 111.62 416.13 114.87 420.82 118.13 C421.51 118.6 422.2 119.07 422.9 119.56 C424.88 120.93 426.85 122.31 428.82 123.69 C429.73 124.32 429.73 124.32 430.66 124.95 C432.09 125.96 433.46 127.04 434.82 128.13 C434.82 128.79 434.82 129.45 434.82 130.13 C435.81 130.13 436.8 130.13 437.82 130.13 C437.82 130.79 437.82 131.45 437.82 132.13 C438.36 132.37 438.9 132.62 439.45 132.88 C442.41 134.43 445.12 136.16 447.82 138.13 C447.82 138.79 447.82 139.45 447.82 140.13 C448.36 140.37 448.9 140.62 449.45 140.88 C452.41 142.43 455.12 144.16 457.82 146.13 C457.82 146.79 457.82 147.45 457.82 148.13 C458.71 148.54 458.71 148.54 459.62 148.96 C461.72 150.07 463.29 151.22 465.07 152.77 C465.66 153.28 466.25 153.8 466.86 154.32 C467.77 155.12 467.77 155.12 468.7 155.94 C469.91 156.99 471.11 158.04 472.32 159.08 C472.9 159.59 473.48 160.1 474.08 160.63 C475.78 162.09 477.52 163.49 479.27 164.89 C480.11 165.63 480.96 166.37 481.82 167.13 C481.82 167.79 481.82 168.45 481.82 169.13 C482.81 169.46 483.8 169.79 484.82 170.13 C484.82 170.79 484.82 171.45 484.82 172.13 C485.48 172.13 486.14 172.13 486.82 172.13 C486.82 172.79 486.82 173.45 486.82 174.13 C487.81 174.46 488.8 174.79 489.82 175.13 C489.82 175.79 489.82 176.45 489.82 177.13 C490.4 177.38 490.98 177.63 491.57 177.89 C494.13 179.29 495.87 180.91 497.93 182.97 C499.07 184.1 499.07 184.1 500.22 185.25 C501.39 186.43 501.39 186.43 502.57 187.63 C503.37 188.41 504.16 189.2 504.98 190.01 C505.73 190.76 506.47 191.51 507.25 192.28 C507.93 192.97 508.62 193.66 509.33 194.37 C510.82 196.13 510.82 196.13 510.82 198.13 C511.81 198.46 512.8 198.79 513.82 199.13 C513.82 199.79 513.82 200.45 513.82 201.13 C514.48 201.13 515.14 201.13 515.82 201.13 C515.82 201.79 515.82 202.45 515.82 203.13 C516.81 203.46 517.8 203.79 518.82 204.13 C518.82 204.79 518.82 205.45 518.82 206.13 C519.48 206.13 520.14 206.13 520.82 206.13 C522.13 207.38 522.13 207.38 523.7 209.25 C524.31 209.97 524.91 210.69 525.54 211.42 C526.67 212.76 526.67 212.76 527.82 214.13 C528.87 215.32 529.91 216.51 530.95 217.71 C532.06 218.97 533.16 220.24 534.26 221.5 C534.81 222.12 535.35 222.74 535.91 223.38 C539.82 227.9 539.82 227.9 539.82 230.13 C540.48 230.13 541.14 230.13 541.82 230.13 C543.33 231.81 543.33 231.81 544.95 234 C545.49 234.72 546.03 235.44 546.58 236.18 C547.82 238.13 547.82 238.13 547.82 240.13 C548.48 240.13 549.14 240.13 549.82 240.13 C551.33 241.81 551.33 241.81 552.95 244 C553.49 244.72 554.03 245.44 554.58 246.18 C555.82 248.13 555.82 248.13 555.82 250.13 C556.48 250.13 557.14 250.13 557.82 250.13 C557.82 251.12 557.82 252.11 557.82 253.13 C558.48 253.13 559.14 253.13 559.82 253.13 C561.12 254.59 561.12 254.59 562.58 256.64 C563.12 257.39 563.66 258.14 564.22 258.92 C564.79 259.73 565.36 260.54 565.95 261.38 C566.83 262.62 566.83 262.62 567.73 263.88 C572.23 270.21 576.57 276.63 580.82 283.13 C581.63 284.33 582.44 285.53 583.25 286.74 C588.65 294.75 593.82 302.86 598.82 311.13 C599.63 312.42 599.63 312.42 600.44 313.74 C603.82 319.23 606.74 324.85 609.53 330.66 C610.72 333.22 610.72 333.22 612.82 335.13 C612.82 336.45 612.82 337.77 612.82 339.13 C613.48 339.13 614.14 339.13 614.82 339.13 C615.31 340.1 615.79 341.07 616.29 342.06 C616.77 343.02 616.77 343.02 617.26 344 C617.98 345.44 618.69 346.87 619.41 348.3 C621.25 352 623.11 355.69 625 359.37 C628.43 366.08 631.54 372.64 633.96 379.8 C634.78 382.01 635.74 383.91 636.95 385.94 C638.76 389.02 639.71 391.75 640.82 395.13 C641.78 397.41 642.76 399.68 643.76 401.94 C645.75 406.5 647.56 411.05 649.05 415.8 C650.02 418.7 651.14 421.53 652.26 424.38 C655.35 432.35 657.77 440.48 660.15 448.69 C660.38 449.47 660.6 450.24 660.83 451.04 C661.28 452.58 661.72 454.12 662.16 455.66 C662.96 459.17 662.96 459.17 664.82 462.13 C665.18 463.45 665.48 464.79 665.76 466.13 C666.02 467.35 666.02 467.35 666.29 468.59 C666.47 469.43 666.64 470.26 666.82 471.13 C668.19 477.5 669.64 483.79 671.82 489.94 C672.9 493.37 673.59 496.77 674.26 500.29 C674.88 503.38 675.59 506.44 676.32 509.5 C678.62 519.38 680.01 529.34 681.32 539.39 C682.3 546.72 683.38 554.01 684.89 561.25 C686.05 567.37 686.25 573.54 686.48 579.75 C686.53 584.08 686.53 584.08 687.82 588.13 C687.92 589.52 687.95 590.91 687.95 592.3 C687.96 593.61 687.96 593.61 687.96 594.95 C687.96 595.92 687.96 596.88 687.95 597.87 C687.96 598.88 687.96 599.89 687.96 600.93 C687.96 604.29 687.96 607.65 687.96 611 C687.96 613.33 687.96 615.65 687.96 617.97 C687.96 622.85 687.96 627.73 687.96 632.6 C687.95 638.86 687.95 645.12 687.96 651.39 C687.96 656.19 687.96 660.99 687.96 665.79 C687.96 668.1 687.96 670.41 687.96 672.72 C687.96 675.94 687.96 679.16 687.95 682.38 C687.96 683.83 687.96 683.83 687.96 685.3 C687.96 686.18 687.95 687.05 687.95 687.95 C687.95 688.71 687.95 689.48 687.95 690.26 C687.82 692.13 687.82 692.13 686.82 694.13 C686.66 696.9 686.55 699.66 686.45 702.44 C686.02 712.34 684.73 722.01 683.19 731.79 C682.86 733.88 682.56 735.97 682.25 738.06 C681.6 742.56 680.93 746.98 679.76 751.38 C679.07 754.15 678.67 756.39 678.45 759.19 C677.98 764.12 676.66 768.78 675.34 773.54 C673.92 778.7 672.79 783.86 671.82 789.13 C671.47 790.98 671.12 792.84 670.76 794.69 C670.61 795.52 670.45 796.34 670.29 797.19 C669.82 799.13 669.82 799.13 668.82 800.13 C668.47 801.45 668.17 802.79 667.89 804.13 C667.71 804.94 667.53 805.76 667.35 806.6 C667.02 808.19 666.7 809.78 666.39 811.37 C665.37 816.45 663.75 820.97 661.76 825.74 C660.73 828.37 660.07 831.01 659.44 833.76 C655.78 847.82 650.31 861.69 644.82 875.13 C644.18 876.75 643.53 878.38 642.89 880 C636.45 896.05 636.45 896.05 632.77 903.17 C631.76 905.27 630.95 907.38 630.14 909.56 C627.92 915.26 625.02 920.55 622.12 925.92 C619.45 930.9 617.01 935.91 614.82 941.13 C614.16 941.13 613.5 941.13 612.82 941.13 C612.66 942.22 612.66 942.22 612.49 943.34 C611.79 946.29 610.77 948.15 609.14 950.69 C606.81 954.42 604.78 958.16 602.89 962.13 C600.47 967.08 597.65 971.45 594.41 975.9 C592.74 978.24 591.34 980.68 589.96 983.19 C587.16 987.98 583.95 992.54 580.82 997.13 C580.4 997.75 579.98 998.37 579.54 999.01 C576.33 1003.73 573.08 1008.43 569.82 1013.13 C569.35 1013.81 568.88 1014.5 568.39 1015.21 C567.02 1017.18 565.64 1019.16 564.26 1021.13 C563.84 1021.73 563.43 1022.34 563 1022.96 C561.99 1024.39 560.91 1025.76 559.82 1027.13 C559.16 1027.13 558.5 1027.13 557.82 1027.13 C557.82 1028.12 557.82 1029.11 557.82 1030.13 C557.16 1030.13 556.5 1030.13 555.82 1030.13 C555.58 1030.66 555.33 1031.2 555.07 1031.75 C553.52 1034.71 551.79 1037.42 549.82 1040.13 C549.16 1040.13 548.5 1040.13 547.82 1040.13 C547.58 1040.66 547.33 1041.2 547.07 1041.75 C545.52 1044.71 543.79 1047.42 541.82 1050.13 C541.16 1050.13 540.5 1050.13 539.82 1050.13 C539.55 1050.72 539.27 1051.31 538.99 1051.92 C537.88 1054.02 536.73 1055.59 535.18 1057.37 C534.67 1057.96 534.16 1058.55 533.63 1059.16 C533.09 1059.77 532.56 1060.38 532.01 1061 C530.96 1062.21 529.92 1063.41 528.87 1064.62 C528.36 1065.2 527.85 1065.78 527.32 1066.38 C525.86 1068.08 524.46 1069.82 523.06 1071.57 C522.32 1072.42 521.59 1073.26 520.82 1074.13 C520.16 1074.13 519.5 1074.13 518.82 1074.13 C518.49 1075.12 518.16 1076.11 517.82 1077.13 C517.16 1077.13 516.5 1077.13 515.82 1077.13 C515.82 1077.79 515.82 1078.45 515.82 1079.13 C515.16 1079.13 514.5 1079.13 513.82 1079.13 C513.49 1080.12 513.16 1081.11 512.82 1082.13 C512.16 1082.13 511.5 1082.13 510.82 1082.13 C510.57 1082.7 510.32 1083.28 510.06 1083.87 C508.66 1086.43 507.04 1088.17 504.98 1090.24 C503.85 1091.37 503.85 1091.37 502.7 1092.52 C501.92 1093.3 501.13 1094.08 500.32 1094.88 C499.54 1095.67 498.75 1096.46 497.95 1097.28 C497.19 1098.03 496.44 1098.78 495.67 1099.55 C494.63 1100.58 494.63 1100.58 493.58 1101.63 C491.82 1103.13 491.82 1103.13 489.82 1103.13 C489.49 1104.12 489.16 1105.11 488.82 1106.13 C488.16 1106.13 487.5 1106.13 486.82 1106.13 C486.82 1106.79 486.82 1107.45 486.82 1108.13 C486.16 1108.13 485.5 1108.13 484.82 1108.13 C484.49 1109.12 484.16 1110.11 483.82 1111.13 C483.16 1111.13 482.5 1111.13 481.82 1111.13 C481.82 1111.79 481.82 1112.45 481.82 1113.13 C480.57 1114.43 480.57 1114.43 478.7 1116 C477.98 1116.61 477.27 1117.22 476.53 1117.84 C475.64 1118.6 474.74 1119.35 473.82 1120.13 C472.63 1121.17 471.44 1122.21 470.25 1123.26 C468.98 1124.36 467.72 1125.46 466.45 1126.56 C465.52 1127.38 465.52 1127.38 464.57 1128.21 C460.05 1132.13 460.05 1132.13 457.82 1132.13 C457.82 1132.79 457.82 1133.45 457.82 1134.13 C456.15 1135.63 456.15 1135.63 453.95 1137.25 C452.87 1138.06 452.87 1138.06 451.77 1138.88 C449.82 1140.13 449.82 1140.13 447.82 1140.13 C447.82 1140.79 447.82 1141.45 447.82 1142.13 C446.15 1143.63 446.15 1143.63 443.95 1145.25 C442.87 1146.06 442.87 1146.06 441.77 1146.88 C439.82 1148.13 439.82 1148.13 437.82 1148.13 C437.82 1148.79 437.82 1149.45 437.82 1150.13 C436.83 1150.13 435.84 1150.13 434.82 1150.13 C434.82 1150.79 434.82 1151.45 434.82 1152.13 C433.36 1153.42 433.36 1153.42 431.31 1154.88 C430.56 1155.42 429.81 1155.96 429.03 1156.52 C428.22 1157.09 427.41 1157.66 426.57 1158.25 C425.75 1158.84 424.92 1159.43 424.07 1160.03 C417.74 1164.53 411.32 1168.87 404.82 1173.13 C403.62 1173.93 402.42 1174.74 401.22 1175.55 C393.2 1180.95 385.09 1186.13 376.82 1191.13 C375.53 1191.93 375.53 1191.93 374.22 1192.74 C368.73 1196.12 363.1 1199.04 357.29 1201.83 C354.74 1203.02 354.74 1203.02 352.82 1205.13 C351.5 1205.13 350.18 1205.13 348.82 1205.13 C348.82 1205.79 348.82 1206.45 348.82 1207.13 C347.86 1207.61 346.89 1208.1 345.89 1208.6 C344.93 1209.08 344.93 1209.08 343.95 1209.57 C342.52 1210.28 341.08 1211 339.65 1211.71 C335.95 1213.56 332.26 1215.41 328.59 1217.3 C321.88 1220.73 315.31 1223.84 308.15 1226.26 C305.94 1227.08 304.04 1228.05 302.01 1229.25 C298.93 1231.06 296.2 1232.01 292.82 1233.13 C290.55 1234.09 288.27 1235.07 286.01 1236.06 C281.45 1238.05 276.9 1239.86 272.15 1241.35 C269.25 1242.32 266.42 1243.44 263.57 1244.56 C255.6 1247.66 247.47 1250.07 239.26 1252.45 C238.49 1252.68 237.71 1252.9 236.91 1253.14 C235.37 1253.58 233.83 1254.03 232.3 1254.46 C228.78 1255.26 228.78 1255.26 225.82 1257.13 C224.5 1257.48 223.16 1257.78 221.82 1258.06 C220.61 1258.33 220.61 1258.33 219.36 1258.59 C218.53 1258.77 217.69 1258.95 216.82 1259.13 C210.45 1260.49 204.17 1261.94 198.01 1264.13 C194.58 1265.2 191.19 1265.89 187.66 1266.56 C184.57 1267.18 181.51 1267.9 178.45 1268.63 C168.57 1270.92 158.62 1272.31 148.56 1273.63 C141.23 1274.61 133.94 1275.69 126.7 1277.19 C120.58 1278.35 114.41 1278.55 108.2 1278.79 C103.87 1278.83 103.87 1278.83 99.82 1280.13 C98.44 1280.22 97.04 1280.25 95.65 1280.25 C94.34 1280.26 94.34 1280.26 93 1280.26 C92.04 1280.26 91.07 1280.26 90.08 1280.26 C89.07 1280.26 88.06 1280.26 87.02 1280.26 C83.66 1280.27 80.31 1280.26 76.95 1280.26 C74.63 1280.26 72.3 1280.26 69.98 1280.26 C65.1 1280.26 60.23 1280.26 55.35 1280.26 C49.09 1280.25 42.83 1280.25 36.57 1280.26 C31.76 1280.26 26.96 1280.26 22.16 1280.26 C19.85 1280.26 17.54 1280.26 15.24 1280.26 C12.01 1280.27 8.79 1280.26 5.57 1280.26 C4.12 1280.26 4.12 1280.26 2.65 1280.26 C1.78 1280.26 0.9 1280.26 0 1280.25 C-0.76 1280.25 -1.52 1280.25 -2.31 1280.25 C-4.18 1280.13 -4.18 1280.13 -6.18 1279.13 C-8.95 1278.97 -11.71 1278.85 -14.49 1278.75 C-24.39 1278.33 -34.06 1277.03 -43.84 1275.49 C-45.93 1275.17 -48.02 1274.86 -50.11 1274.56 C-54.61 1273.9 -59.03 1273.23 -63.43 1272.06 C-66.2 1271.37 -68.44 1270.98 -71.24 1270.75 C-76.17 1270.28 -80.83 1268.96 -85.58 1267.64 C-90.75 1266.22 -95.91 1265.09 -101.18 1264.13 C-103.03 1263.78 -104.88 1263.42 -106.74 1263.06 C-107.56 1262.91 -108.39 1262.75 -109.24 1262.59 C-111.18 1262.13 -111.18 1262.13 -112.18 1261.13 C-113.5 1260.78 -114.84 1260.47 -116.18 1260.19 C-116.99 1260.01 -117.81 1259.84 -118.65 1259.65 C-120.24 1259.32 -121.83 1259 -123.42 1258.69 C-128.49 1257.67 -133.02 1256.05 -137.79 1254.06 C-140.41 1253.03 -143.06 1252.37 -145.8 1251.74 C-159.87 1248.08 -173.74 1242.62 -187.18 1237.13 C-188.8 1236.48 -190.42 1235.83 -192.05 1235.19 C-208.1 1228.75 -208.1 1228.75 -215.22 1225.07 C-217.31 1224.06 -219.43 1223.25 -221.61 1222.44 C-227.31 1220.23 -232.6 1217.32 -237.97 1214.43 C-242.95 1211.75 -247.95 1209.31 -253.18 1207.13 C-253.18 1206.47 -253.18 1205.81 -253.18 1205.13 C-253.91 1205.02 -254.64 1204.91 -255.39 1204.79 C-258.34 1204.09 -260.2 1203.08 -262.74 1201.44 C-266.47 1199.11 -270.21 1197.09 -274.18 1195.19 C-279.13 1192.77 -283.5 1189.95 -287.95 1186.71 C-290.29 1185.05 -292.72 1183.65 -295.23 1182.26 C-300.03 1179.46 -304.58 1176.25 -309.18 1173.13 C-309.8 1172.7 -310.42 1172.28 -311.06 1171.85 C-315.78 1168.63 -320.48 1165.38 -325.18 1162.13 C-326.2 1161.42 -326.2 1161.42 -327.25 1160.69 C-329.23 1159.32 -331.21 1157.95 -333.18 1156.56 C-333.78 1156.15 -334.39 1155.73 -335.01 1155.3 C-336.44 1154.29 -337.81 1153.22 -339.18 1152.13 C-339.18 1151.47 -339.18 1150.81 -339.18 1150.13 C-340.17 1150.13 -341.16 1150.13 -342.18 1150.13 C-342.18 1149.47 -342.18 1148.81 -342.18 1148.13 C-342.71 1147.88 -343.25 1147.63 -343.8 1147.38 C-346.76 1145.82 -349.47 1144.09 -352.18 1142.13 C-352.18 1141.47 -352.18 1140.81 -352.18 1140.13 C-352.71 1139.88 -353.25 1139.63 -353.8 1139.38 C-356.76 1137.82 -359.47 1136.09 -362.18 1134.13 C-362.18 1133.47 -362.18 1132.81 -362.18 1132.13 C-362.77 1131.85 -363.36 1131.58 -363.97 1131.29 C-366.07 1130.18 -367.64 1129.04 -369.42 1127.48 C-370.01 1126.97 -370.6 1126.46 -371.21 1125.93 C-371.82 1125.4 -372.42 1124.86 -373.05 1124.31 C-374.26 1123.27 -375.46 1122.22 -376.67 1121.17 C-377.25 1120.66 -377.83 1120.15 -378.43 1119.62 C-380.13 1118.16 -381.87 1116.77 -383.62 1115.37 C-384.46 1114.63 -385.31 1113.89 -386.18 1113.13 C-386.18 1112.47 -386.18 1111.81 -386.18 1111.13 C-387.17 1110.8 -388.16 1110.47 -389.18 1110.13 C-389.18 1109.47 -389.18 1108.81 -389.18 1108.13 C-389.84 1108.13 -390.5 1108.13 -391.18 1108.13 C-391.18 1107.47 -391.18 1106.81 -391.18 1106.13 C-392.17 1105.8 -393.16 1105.47 -394.18 1105.13 C-394.18 1104.47 -394.18 1103.81 -394.18 1103.13 C-395.04 1102.75 -395.04 1102.75 -395.92 1102.37 C-398.48 1100.96 -400.22 1099.35 -402.28 1097.28 C-403.42 1096.16 -403.42 1096.16 -404.57 1095.01 C-405.35 1094.22 -406.12 1093.44 -406.93 1092.63 C-407.72 1091.84 -408.51 1091.06 -409.33 1090.25 C-410.45 1089.12 -410.45 1089.12 -411.6 1087.97 C-412.63 1086.94 -412.63 1086.94 -413.68 1085.88 C-415.18 1084.13 -415.18 1084.13 -415.18 1082.13 C-416.17 1081.8 -417.16 1081.47 -418.18 1081.13 C-418.18 1080.47 -418.18 1079.81 -418.18 1079.13 C-418.84 1079.13 -419.5 1079.13 -420.18 1079.13 C-420.18 1078.47 -420.18 1077.81 -420.18 1077.13 C-421.17 1076.8 -422.16 1076.47 -423.18 1076.13 C-423.18 1075.47 -423.18 1074.81 -423.18 1074.13 C-423.84 1074.13 -424.5 1074.13 -425.18 1074.13 C-426.48 1072.87 -426.48 1072.87 -428.05 1071 C-428.66 1070.29 -429.26 1069.57 -429.89 1068.83 C-430.64 1067.94 -431.4 1067.05 -432.18 1066.13 C-433.22 1064.93 -434.26 1063.74 -435.3 1062.55 C-436.41 1061.28 -437.51 1060.02 -438.61 1058.75 C-439.16 1058.13 -439.7 1057.51 -440.26 1056.88 C-444.18 1052.35 -444.18 1052.35 -444.18 1050.13 C-444.84 1050.13 -445.5 1050.13 -446.18 1050.13 C-447.68 1048.45 -447.68 1048.45 -449.3 1046.25 C-450.11 1045.17 -450.11 1045.17 -450.93 1044.07 C-452.18 1042.13 -452.18 1042.13 -452.18 1040.13 C-452.84 1040.13 -453.5 1040.13 -454.18 1040.13 C-455.68 1038.45 -455.68 1038.45 -457.3 1036.25 C-458.11 1035.17 -458.11 1035.17 -458.93 1034.07 C-460.18 1032.13 -460.18 1032.13 -460.18 1030.13 C-460.84 1030.13 -461.5 1030.13 -462.18 1030.13 C-462.18 1029.14 -462.18 1028.15 -462.18 1027.13 C-462.84 1027.13 -463.5 1027.13 -464.18 1027.13 C-465.47 1025.67 -465.47 1025.67 -466.93 1023.61 C-467.47 1022.86 -468.01 1022.11 -468.57 1021.34 C-469.14 1020.53 -469.71 1019.71 -470.3 1018.88 C-471.18 1017.64 -471.18 1017.64 -472.08 1016.38 C-476.58 1010.04 -480.92 1003.62 -485.18 997.13 C-485.98 995.92 -486.79 994.72 -487.6 993.52 C-493 985.5 -498.17 977.4 -503.18 969.13 C-503.71 968.27 -504.24 967.4 -504.79 966.52 C-508.17 961.03 -511.09 955.41 -513.88 949.6 C-515.07 947.04 -515.07 947.04 -517.18 945.13 C-517.18 943.81 -517.18 942.49 -517.18 941.13 C-517.84 941.13 -518.5 941.13 -519.18 941.13 C-519.66 940.16 -520.14 939.19 -520.64 938.19 C-520.96 937.55 -521.28 936.91 -521.61 936.25 C-522.33 934.82 -523.05 933.38 -523.76 931.95 C-525.6 928.25 -527.46 924.56 -529.35 920.89 C-532.78 914.18 -535.89 907.61 -538.31 900.46 C-539.13 898.24 -540.09 896.34 -541.3 894.31 C-543.11 891.23 -544.06 888.51 -545.18 885.13 C-546.13 882.85 -547.11 880.58 -548.11 878.31 C-550.1 873.75 -551.91 869.2 -553.4 864.45 C-554.37 861.55 -555.49 858.72 -556.61 855.88 C-559.7 847.9 -562.12 839.77 -564.5 831.56 C-564.84 830.4 -564.84 830.4 -565.19 829.21 C-565.63 827.67 -566.07 826.14 -566.51 824.6 C-567.31 821.08 -567.31 821.08 -569.18 818.13 C-569.53 816.8 -569.83 815.47 -570.11 814.13 C-570.29 813.31 -570.46 812.5 -570.64 811.67 C-570.82 810.83 -570.99 809.99 -571.18 809.13 C-572.54 802.75 -573.99 796.47 -576.18 790.31 C-577.25 786.88 -577.94 783.49 -578.61 779.96 C-579.23 776.87 -579.95 773.82 -580.68 770.75 C-582.97 760.87 -584.36 750.92 -585.68 740.87 C-586.66 733.54 -587.73 726.24 -589.24 719 C-590.4 712.88 -590.6 706.71 -590.83 700.5 C-590.88 696.18 -590.88 696.18 -592.18 692.13 C-592.27 690.74 -592.3 689.34 -592.3 687.95 C-592.31 687.08 -592.31 686.2 -592.31 685.3 C-592.31 683.86 -592.31 683.86 -592.3 682.38 C-592.31 681.37 -592.31 680.36 -592.31 679.32 C-592.31 675.96 -592.31 672.61 -592.31 669.25 C-592.31 666.93 -592.31 664.6 -592.31 662.28 C-592.31 657.4 -592.31 652.53 -592.31 647.65 C-592.3 641.39 -592.3 635.13 -592.31 628.87 C-592.31 624.07 -592.31 619.27 -592.31 614.47 C-592.31 612.16 -592.31 609.85 -592.31 607.54 C-592.31 604.31 -592.31 601.09 -592.3 597.87 C-592.31 596.91 -592.31 595.94 -592.31 594.95 C-592.31 594.08 -592.31 593.2 -592.3 592.3 C-592.3 591.54 -592.3 590.78 -592.3 589.99 C-592.18 588.13 -592.18 588.13 -591.18 586.13 C-591.01 583.35 -590.9 580.59 -590.8 577.81 C-590.37 567.92 -589.08 558.24 -587.54 548.46 C-587.21 546.37 -586.91 544.28 -586.6 542.19 C-585.95 537.7 -585.28 533.27 -584.11 528.88 C-583.42 526.1 -583.02 523.86 -582.8 521.06 C-582.33 516.13 -581.01 511.47 -579.69 506.72 C-578.27 501.55 -577.14 496.39 -576.18 491.13 C-575.83 489.27 -575.47 487.42 -575.11 485.56 C-574.96 484.74 -574.8 483.91 -574.64 483.06 C-574.18 481.13 -574.18 481.13 -573.18 480.13 C-572.82 478.8 -572.52 477.47 -572.24 476.13 C-572.06 475.31 -571.88 474.5 -571.7 473.65 C-571.37 472.07 -571.05 470.47 -570.74 468.88 C-569.72 463.81 -568.1 459.28 -566.11 454.51 C-565.08 451.89 -564.42 449.24 -563.79 446.5 C-560.13 432.43 -554.66 418.56 -549.18 405.13 C-548.53 403.5 -547.88 401.88 -547.24 400.25 C-540.8 384.2 -540.8 384.2 -537.12 377.08 C-536.11 374.99 -535.3 372.87 -534.49 370.69 C-532.27 364.99 -529.37 359.71 -526.47 354.33 C-523.8 349.35 -521.36 344.35 -519.18 339.13 C-518.52 339.13 -517.86 339.13 -517.18 339.13 C-517.07 338.4 -516.96 337.67 -516.84 336.91 C-516.14 333.96 -515.12 332.1 -513.49 329.56 C-511.16 325.84 -509.14 322.09 -507.24 318.13 C-504.82 313.17 -502 308.8 -498.76 304.35 C-497.09 302.01 -495.69 299.58 -494.31 297.07 C-491.51 292.27 -488.3 287.72 -485.18 283.13 C-484.75 282.51 -484.33 281.88 -483.9 281.24 C-480.68 276.52 -477.43 271.82 -474.18 267.13 C-473.7 266.44 -473.23 265.75 -472.74 265.05 C-471.37 263.07 -469.99 261.1 -468.61 259.13 C-467.99 258.22 -467.99 258.22 -467.35 257.29 C-466.34 255.87 -465.26 254.49 -464.18 253.13 C-463.52 253.13 -462.86 253.13 -462.18 253.13 C-462.18 252.14 -462.18 251.15 -462.18 250.13 C-461.52 250.13 -460.86 250.13 -460.18 250.13 C-459.8 249.32 -459.8 249.32 -459.43 248.5 C-457.87 245.54 -456.14 242.83 -454.18 240.13 C-453.52 240.13 -452.86 240.13 -452.18 240.13 C-451.8 239.32 -451.8 239.32 -451.43 238.5 C-449.87 235.54 -448.14 232.83 -446.18 230.13 C-445.52 230.13 -444.86 230.13 -444.18 230.13 C-443.9 229.53 -443.62 228.94 -443.34 228.33 C-442.23 226.23 -441.08 224.66 -439.53 222.88 C-439.02 222.29 -438.51 221.7 -437.98 221.09 C-437.18 220.18 -437.18 220.18 -436.36 219.25 C-435.31 218.05 -434.27 216.84 -433.22 215.63 C-432.45 214.76 -432.45 214.76 -431.67 213.87 C-430.21 212.17 -428.81 210.43 -427.41 208.68 C-426.67 207.84 -425.94 207 -425.18 206.13 C-424.52 206.13 -423.86 206.13 -423.18 206.13 C-422.85 205.14 -422.52 204.15 -422.18 203.13 C-421.52 203.13 -420.86 203.13 -420.18 203.13 C-420.18 202.47 -420.18 201.81 -420.18 201.13 C-419.52 201.13 -418.86 201.13 -418.18 201.13 C-417.85 200.14 -417.52 199.15 -417.18 198.13 C-416.52 198.13 -415.86 198.13 -415.18 198.13 C-414.92 197.55 -414.67 196.98 -414.42 196.38 C-413.01 193.82 -411.39 192.09 -409.33 190.02 C-408.58 189.26 -407.83 188.51 -407.05 187.73 C-406.27 186.96 -405.48 186.18 -404.68 185.38 C-403.89 184.58 -403.11 183.79 -402.3 182.97 C-401.54 182.23 -400.79 181.48 -400.02 180.71 C-399.33 180.02 -398.64 179.33 -397.93 178.62 C-396.18 177.13 -396.18 177.13 -394.18 177.13 C-393.85 176.14 -393.52 175.15 -393.18 174.13 C-392.52 174.13 -391.86 174.13 -391.18 174.13 C-391.18 173.47 -391.18 172.81 -391.18 172.13 C-390.52 172.13 -389.86 172.13 -389.18 172.13 C-388.85 171.14 -388.52 170.15 -388.18 169.13 C-387.52 169.13 -386.86 169.13 -386.18 169.13 C-386.18 168.47 -386.18 167.81 -386.18 167.13 C-384.92 165.82 -384.92 165.82 -383.05 164.25 C-382.33 163.64 -381.62 163.04 -380.88 162.41 C-379.99 161.66 -379.09 160.9 -378.18 160.13 C-376.98 159.09 -375.79 158.04 -374.6 157 C-373.33 155.9 -372.07 154.79 -370.8 153.69 C-370.18 153.15 -369.56 152.6 -368.92 152.04 C-364.4 148.13 -364.4 148.13 -362.18 148.13 C-362.18 147.47 -362.18 146.81 -362.18 146.13 C-360.5 144.62 -360.5 144.62 -358.3 143 C-357.58 142.46 -356.86 141.92 -356.12 141.37 C-354.18 140.13 -354.18 140.13 -352.18 140.13 C-352.18 139.47 -352.18 138.81 -352.18 138.13 C-350.5 136.62 -350.5 136.62 -348.3 135 C-347.58 134.46 -346.86 133.92 -346.12 133.37 C-344.18 132.13 -344.18 132.13 -342.18 132.13 C-342.18 131.47 -342.18 130.81 -342.18 130.13 C-341.19 130.13 -340.2 130.13 -339.18 130.13 C-339.18 129.47 -339.18 128.81 -339.18 128.13 C-337.71 126.83 -337.71 126.83 -335.66 125.37 C-334.91 124.83 -334.16 124.29 -333.39 123.74 C-332.57 123.16 -331.76 122.59 -330.93 122 C-330.1 121.41 -329.27 120.83 -328.42 120.22 C-322.09 115.72 -315.67 111.39 -309.18 107.13 C-307.97 106.32 -306.77 105.51 -305.57 104.7 C-297.55 99.31 -289.44 94.13 -281.18 89.13 C-280.31 88.59 -279.45 88.06 -278.57 87.51 C-273.08 84.14 -267.46 81.21 -261.64 78.42 C-259.09 77.24 -259.09 77.24 -257.18 75.13 C-255.86 75.13 -254.54 75.13 -253.18 75.13 C-253.18 74.47 -253.18 73.81 -253.18 73.13 C-252.21 72.64 -251.24 72.16 -250.24 71.66 C-249.28 71.18 -249.28 71.18 -248.3 70.69 C-246.87 69.97 -245.43 69.26 -244 68.54 C-240.3 66.7 -236.61 64.84 -232.94 62.96 C-226.23 59.52 -219.66 56.42 -212.5 53.99 C-210.29 53.17 -208.39 52.21 -206.36 51 C-203.28 49.19 -200.56 48.24 -197.18 47.13 C-194.9 46.17 -192.63 45.19 -190.36 44.19 C-185.8 42.2 -181.25 40.39 -176.5 38.9 C-173.6 37.93 -170.77 36.81 -167.93 35.69 C-159.95 32.6 -151.82 30.18 -143.61 27.8 C-142.45 27.46 -142.45 27.46 -141.26 27.12 C-139.72 26.67 -138.19 26.23 -136.65 25.79 C-133.13 25 -133.13 25 -130.18 23.13 C-128.85 22.78 -127.52 22.47 -126.18 22.19 C-125.36 22.02 -124.55 21.84 -123.71 21.66 C-122.46 21.4 -122.46 21.4 -121.18 21.13 C-114.8 19.76 -108.52 18.31 -102.36 16.13 C-98.93 15.05 -95.54 14.37 -92.01 13.69 C-88.92 13.08 -85.86 12.36 -82.8 11.63 C-72.92 9.33 -62.97 7.94 -52.91 6.63 C-45.58 5.65 -38.29 4.57 -31.05 3.06 C-24.93 1.9 -18.76 1.7 -12.55 1.47 C-8.12 1.29 -4.34 0 0 0 Z " fill="#000000" transform="translate(592.17529296875,-0.126983642578125)"/>
<path d="M0 0 C2.84 2.36 2.84 2.36 3.38 5.12 C2.44 11.58 -2.67 15.51 -7.64 19.36 C-12.85 23.2 -18.4 26.48 -23.94 29.81 C-46.62 43.64 -69.03 57.84 -88.46 76.08 C-90.65 78.13 -92.89 80.07 -95.19 82 C-118.29 102.14 -135.85 130.56 -151.19 156.75 C-151.65 157.54 -152.12 158.33 -152.6 159.14 C-154.96 163.23 -156.64 167.07 -158.12 171.56 C-159.77 174.42 -161.51 177.19 -163.29 179.97 C-164.89 182.5 -166.17 184.71 -167.12 187.56 C-166.8 187.01 -166.48 186.47 -166.15 185.9 C-160.2 175.79 -154.28 165.87 -147.12 156.56 C-145.6 154.52 -144.08 152.48 -142.56 150.44 C-141.09 148.48 -139.61 146.52 -138.12 144.56 C-137.28 143.44 -137.28 143.44 -136.42 142.3 C-122.49 124.03 -106.61 106.47 -89.12 91.56 C-88.09 90.65 -87.05 89.73 -86.01 88.82 C-78.58 82.3 -70.94 76.33 -62.8 70.72 C-61.21 69.62 -59.63 68.49 -58.06 67.36 C-44.18 57.49 -29.5 48.83 -14.11 41.53 C-12.11 40.56 -10.14 39.53 -8.18 38.5 C56.8 5.04 140.62 -0.35 210.88 17.56 C211.89 17.82 212.91 18.08 213.96 18.34 C254.23 28.65 295.88 46.5 327.88 73.56 C329.29 74.65 330.7 75.74 332.12 76.81 C342.77 85.14 352.61 94.09 362.19 103.62 C363.11 104.53 364.02 105.44 364.97 106.38 C371.03 112.47 376.56 118.82 381.88 125.56 C382.74 126.64 382.74 126.64 383.62 127.75 C391.7 137.94 399.08 148.47 405.88 159.56 C406.33 160.3 406.78 161.03 407.24 161.79 C418.13 179.67 427.39 198.44 434.11 218.3 C434.61 219.79 435.13 221.27 435.65 222.76 C460.71 293.77 454.26 377.38 425.88 446.56 C424.67 443.09 425.09 441.11 426.31 437.68 C426.63 436.76 426.95 435.84 427.28 434.89 C427.62 433.94 427.96 432.98 428.31 432 C428.98 430.1 429.65 428.21 430.31 426.31 C430.76 425.05 430.76 425.05 431.22 423.77 C432.02 421.47 432.02 421.47 431.88 418.56 C432.53 418.56 433.2 418.56 433.88 418.56 C433.67 417.82 433.46 417.08 433.25 416.31 C432.81 413.07 433.42 412.4 434.88 409.56 C435.11 407.79 435.33 406.02 435.54 404.24 C435.96 400.9 436.49 397.57 437.03 394.24 C437.14 393.57 437.25 392.89 437.36 392.2 C437.81 389.39 438.26 386.58 438.72 383.78 C444.41 348.91 444.44 311.32 437.88 276.56 C437.67 275.47 437.47 274.37 437.26 273.24 C432.42 248.18 424.23 223.42 412.88 200.56 C412.26 199.3 412.26 199.3 411.62 198.01 C399.4 173.26 383.92 149.61 364.88 129.56 C363.79 128.3 362.7 127.03 361.62 125.75 C353.8 116.76 345.13 108.08 335.88 100.56 C335.39 100.16 334.9 99.77 334.39 99.36 C309.18 78.97 281.08 62.37 250.88 50.56 C250.03 50.23 249.19 49.9 248.32 49.56 C219.65 38.38 187.44 29.54 156.43 29.36 C155.64 29.35 154.85 29.35 154.03 29.34 C151.46 29.32 148.89 29.31 146.31 29.31 C145.43 29.31 144.54 29.31 143.63 29.31 C59.21 29.41 -26.03 59.07 -87.12 118.56 C-87.83 119.24 -88.53 119.91 -89.25 120.61 C-98.52 129.56 -107.26 138.57 -114.91 148.94 C-116.12 150.56 -117.36 152.14 -118.62 153.72 C-132.3 170.92 -143.01 189.9 -152.56 209.62 C-153.08 210.7 -153.6 211.77 -154.14 212.87 C-156.61 218.05 -158.8 222.98 -160.12 228.56 C-160.33 229.37 -160.54 230.17 -160.75 231 C-160.94 231.77 -160.94 231.77 -161.12 232.56 C-160.71 231.82 -160.3 231.09 -159.88 230.32 C-155.72 223.03 -151.18 216.25 -146.12 209.56 C-145.62 208.89 -145.12 208.21 -144.6 207.52 C-143.65 206.25 -142.7 204.98 -141.74 203.71 C-140.51 202.08 -139.29 200.43 -138.07 198.79 C-132.94 191.88 -127.64 185.16 -122.12 178.56 C-121.28 177.53 -120.44 176.5 -119.59 175.46 C-107.61 160.98 -94.24 146.81 -79.12 135.56 C-77.67 134.46 -76.22 133.35 -74.77 132.24 C-65.23 125.03 -55.58 118.37 -45.12 112.56 C-44.41 112.16 -43.7 111.76 -42.97 111.35 C-30.79 104.5 -18.34 99.09 -5.12 94.56 C-4.4 94.31 -3.67 94.06 -2.92 93.8 C5.89 90.83 14.79 88.88 23.94 87.25 C25.38 86.99 25.38 86.99 26.86 86.73 C32.28 85.82 37.38 85.39 42.88 85.56 C40.37 88.07 38.32 88.49 34.94 89.56 C14.17 96.61 -6.24 108.56 -16.5 128.5 C-16.83 129.14 -17.17 129.79 -17.51 130.45 C-21.86 139.39 -22.44 148.37 -22.31 158.19 C-22.31 159.17 -22.31 160.16 -22.31 161.17 C-22.28 166 -22.04 170.63 -21.36 175.42 C-20.84 180.2 -20.9 185.01 -20.88 189.81 C-20.84 191.4 -20.84 191.4 -20.81 193.01 C-20.76 204.01 -22.01 213.74 -29.95 221.79 C-36.96 227.51 -45.95 227.66 -54.68 227.74 C-56.14 227.76 -57.59 227.79 -59.04 227.81 C-61.29 227.85 -63.53 227.87 -65.78 227.89 C-85.76 228.03 -102.62 232.03 -117.12 246.56 C-142.31 272.2 -151.21 311.75 -151.12 346.56 C-150.3 377.6 -143 409.18 -128.17 436.56 C-125.7 441.29 -123.52 446.17 -121.27 451.01 C-119.09 455.67 -116.73 460.12 -114.12 464.56 C-109.23 473.12 -104.41 481.68 -100.12 490.56 C-99.76 491.25 -99.39 491.94 -99 492.66 C-97.9 495.05 -97.98 496.96 -98.12 499.56 C-98.68 499.76 -99.23 499.95 -99.8 500.15 C-100.53 500.41 -101.25 500.67 -102 500.94 C-103.08 501.32 -103.08 501.32 -104.18 501.71 C-106.31 502.5 -106.31 502.5 -108.12 504.56 C-108.78 504.23 -109.44 503.9 -110.12 503.56 C-110.78 503.89 -111.44 504.22 -112.12 504.56 C-122.26 505.64 -132.74 505.98 -141.12 499.56 C-144.64 496.73 -147.9 493.72 -151.12 490.56 C-151.92 489.79 -152.72 489.02 -153.54 488.23 C-155.77 486.04 -157.96 483.81 -160.12 481.56 C-160.65 481.05 -161.17 480.53 -161.7 480 C-198.28 441.31 -204.96 366 -204.12 315.56 C-202.28 262.38 -191.17 210.69 -168.12 162.56 C-167.69 161.64 -167.25 160.71 -166.8 159.76 C-156.9 138.84 -145.09 119.03 -131.12 100.56 C-130.61 99.88 -130.1 99.19 -129.57 98.48 C-121.85 88.18 -113.68 78.58 -104.76 69.31 C-103.03 67.46 -101.38 65.55 -99.73 63.63 C-96.02 59.36 -92.01 55.48 -87.88 51.62 C-87.13 50.93 -86.38 50.23 -85.61 49.51 C-80.78 45.02 -75.87 40.72 -70.71 36.62 C-67.91 34.39 -65.21 32.07 -62.5 29.75 C-51.94 20.95 -40.51 13.34 -28.94 5.94 C-28.15 5.43 -27.36 4.92 -26.54 4.4 C-18.46 -0.7 -9.28 -4.27 0 0 Z " fill="#F3A40C" transform="translate(506.125,262.4375)"/>
<path d="M0 0 C0.66 0.33 1.32 0.66 2 1 C1.68 2.16 1.35 3.33 1.02 4.52 C-0.52 11.48 -0.35 18.54 -0.31 25.62 C-0.31 26.35 -0.31 27.08 -0.31 27.83 C-0.26 40.73 0.68 53.29 3 66 C3.13 66.76 3.27 67.51 3.41 68.29 C6.5 85.2 11.8 101.99 18 118 C18.71 119.9 19.42 121.8 20.12 123.7 C20.77 125.41 21.44 127.1 22.12 128.8 C43.83 183.32 57.24 256.42 34.56 312.38 C27.47 328.79 16.51 342.61 3.01 354.24 C1.28 355.75 -0.34 357.3 -1.94 358.94 C-4 361 -4 361 -6 362 C-4.63 358.77 -2.68 356.4 -0.42 353.75 C2.33 350.36 4.65 346.68 7 343 C7.47 342.27 7.95 341.55 8.43 340.8 C16.23 328.37 21.94 315.36 25 301 C25.45 299.18 25.45 299.18 25.9 297.33 C31.36 272.89 28.96 245.26 24 221 C23.79 219.9 23.57 218.81 23.35 217.68 C19.68 199.06 14.45 181.08 7.91 163.27 C6.31 158.92 4.91 154.58 3.62 150.12 C3.42 149.42 3.22 148.72 3.01 147.99 C2.57 146.47 2.13 144.95 1.7 143.42 C0.96 140.86 0.21 138.29 -0.55 135.73 C-7.04 113.53 -10.36 92.47 -10.32 69.33 C-10.31 66.2 -10.34 63.08 -10.36 59.95 C-10.42 42.28 -8.42 25.85 -3 9 C-2.34 9 -1.68 9 -1 9 C-1.33 7.35 -1.66 5.7 -2 4 C-1.34 4 -0.68 4 0 4 C0 2.68 0 1.36 0 0 Z " fill="#EBE2C5" transform="translate(623,406)"/>
<path d="M0 0 C1.96 -0.02 1.96 -0.02 3.97 -0.03 C8.15 0.6 8.82 1.36 11.5 4.5 C12.77 6.51 13.98 8.57 15.14 10.66 C15.46 11.24 15.79 11.82 16.12 12.43 C16.8 13.66 17.48 14.89 18.16 16.12 C19.19 18 20.23 19.87 21.28 21.75 C26.81 31.76 26.81 31.76 27.5 35.5 C28.16 35.5 28.82 35.5 29.5 35.5 C29.5 36.16 29.5 36.82 29.5 37.5 C30.16 37.5 30.82 37.5 31.5 37.5 C31.78 36.78 32.05 36.06 32.34 35.31 C34.28 30.61 36.81 26.21 39.25 21.75 C39.76 20.8 40.28 19.85 40.8 18.87 C49.81 2.34 49.81 2.34 53.5 0.5 C56.01 0.38 58.49 0.31 61 0.31 C61.69 0.3 62.38 0.29 63.09 0.28 C64.89 0.27 66.7 0.38 68.5 0.5 C71.06 3.06 70.74 4.72 70.75 8.21 C70.74 9.4 70.74 9.4 70.73 10.62 C70.73 11.46 70.73 12.3 70.73 13.16 C70.73 15.95 70.71 18.73 70.7 21.51 C70.69 23.43 70.69 25.36 70.69 27.28 C70.68 32.36 70.66 37.43 70.64 42.5 C70.62 47.68 70.61 52.85 70.6 58.03 C70.58 68.18 70.54 78.34 70.5 88.5 C67.54 88.53 64.58 88.55 61.62 88.56 C60.78 88.57 59.94 88.58 59.07 88.59 C58.27 88.59 57.46 88.59 56.63 88.6 C55.52 88.61 55.52 88.61 54.38 88.61 C52.5 88.5 52.5 88.5 50.5 87.5 C50.17 73.31 49.84 59.12 49.5 44.5 C44.03 53.24 44.03 53.24 39.19 62.31 C37.6 64.87 36.89 65.4 33.93 66.16 C29.42 66.4 26.71 66.53 23.16 63.5 C19.81 60.01 17.56 55.88 15.19 51.69 C14.51 50.51 14.51 50.51 13.81 49.3 C12.7 47.37 11.6 45.44 10.5 43.5 C10.48 44.32 10.48 44.32 10.47 45.16 C10.36 50.86 10.25 56.55 10.13 62.24 C10.08 64.37 10.04 66.5 10 68.63 C9.95 71.68 9.88 74.73 9.82 77.78 C9.79 79.21 9.79 79.21 9.77 80.68 C9.75 81.56 9.73 82.44 9.71 83.35 C9.69 84.13 9.67 84.91 9.66 85.71 C9.5 87.5 9.5 87.5 8.5 88.5 C5.51 88.6 2.55 88.64 -0.44 88.62 C-1.27 88.63 -2.11 88.63 -2.97 88.64 C-3.78 88.64 -4.58 88.63 -5.4 88.63 C-6.14 88.63 -6.88 88.63 -7.64 88.63 C-9.5 88.5 -9.5 88.5 -11.5 87.5 C-11.59 76.75 -11.66 65.99 -11.71 55.24 C-11.73 50.25 -11.76 45.26 -11.8 40.26 C-11.85 35.45 -11.87 30.63 -11.88 25.81 C-11.89 23.97 -11.9 22.13 -11.92 20.29 C-11.95 17.72 -11.96 15.15 -11.95 12.57 C-11.97 11.81 -11.98 11.05 -12 10.26 C-11.97 6.81 -11.76 4.85 -9.69 2.03 C-6.47 -0.22 -3.89 -0.03 0 0 Z " fill="#F3A40C" transform="translate(579.5,831.5)"/>
<path d="M0 0 C3.86 2.64 5.1 6.32 6.85 10.48 C8.93 15.05 11.69 19.21 14.38 23.44 C15.49 25.21 16.6 26.98 17.71 28.75 C18.53 30.04 18.53 30.04 19.36 31.36 C21.53 34.86 23.59 38.42 25.63 41.99 C27 44.27 27 44.27 30 46 C29.98 44.74 29.97 43.49 29.95 42.19 C29.9 37.53 29.86 32.88 29.84 28.22 C29.82 26.2 29.8 24.19 29.77 22.17 C29.74 19.27 29.72 16.38 29.71 13.48 C29.69 12.58 29.68 11.67 29.66 10.74 C29.66 9.9 29.66 9.06 29.66 8.2 C29.65 7.46 29.65 6.72 29.64 5.96 C30.1 3.44 31.04 2.59 33 1 C35.84 -0.42 38.33 -0.21 41.5 -0.25 C42.67 -0.28 43.83 -0.3 45.03 -0.33 C46.5 -0.17 46.5 -0.17 48 0 C51.55 5.33 51.15 11.52 51.13 17.76 C51.13 18.87 51.13 18.87 51.13 20 C51.14 22.42 51.14 24.85 51.13 27.27 C51.13 28.96 51.13 30.66 51.14 32.35 C51.14 35.88 51.14 39.41 51.13 42.94 C51.12 47.48 51.13 52.02 51.13 56.55 C51.14 60.04 51.14 63.53 51.13 67.01 C51.13 68.69 51.13 70.36 51.14 72.03 C51.14 74.36 51.13 76.69 51.13 79.02 C51.13 79.72 51.13 80.41 51.14 81.13 C51.11 85.89 51.11 85.89 50 87 C47.23 87.21 44.52 87.32 41.75 87.38 C40.99 87.41 40.22 87.45 39.43 87.49 C35.61 87.55 33.59 87.41 30.4 85.18 C26.89 80.53 23.84 75.66 20.81 70.69 C19.48 68.53 18.16 66.38 16.83 64.22 C16.18 63.17 15.53 62.11 14.87 61.02 C13.19 58.31 11.5 55.62 9.8 52.93 C9.33 52.2 8.86 51.46 8.38 50.7 C7.52 49.35 6.66 48 5.79 46.65 C3 42.22 3 42.22 3 40 C2.34 40 1.68 40 1 40 C1 40.57 1 41.15 1.01 41.74 C1.03 47.69 1.04 53.65 1.05 59.6 C1.06 61.82 1.07 64.05 1.08 66.27 C1.09 69.46 1.09 72.65 1.1 75.84 C1.1 76.84 1.11 77.84 1.11 78.87 C1.11 80.25 1.11 80.25 1.11 81.66 C1.12 82.48 1.12 83.29 1.12 84.13 C1 86 1 86 0 87 C-2.99 87.13 -5.95 87.19 -8.94 87.19 C-10.19 87.21 -10.19 87.21 -11.47 87.22 C-12.28 87.23 -13.08 87.23 -13.9 87.23 C-14.64 87.23 -15.38 87.24 -16.14 87.24 C-18 87 -18 87 -20 85 C-20.25 82.12 -20.25 82.12 -20.26 78.4 C-20.26 77.38 -20.26 77.38 -20.27 76.34 C-20.28 74.09 -20.27 71.84 -20.27 69.59 C-20.27 68.02 -20.27 66.46 -20.27 64.89 C-20.27 61.59 -20.27 58.3 -20.26 55.01 C-20.25 50.81 -20.26 46.61 -20.27 42.41 C-20.28 39.17 -20.27 35.92 -20.27 32.68 C-20.27 31.13 -20.27 29.59 -20.27 28.04 C-20.32 8.92 -20.32 8.92 -16.19 1.94 C-11.18 -1.1 -5.7 -1.06 0 0 Z " fill="#F4A50D" transform="translate(410,833)"/>
<path d="M0 0 C0.7 0 1.4 0.01 2.13 0.01 C3.86 0.03 5.58 0.04 7.31 0.06 C7.31 0.72 7.31 1.38 7.31 2.06 C7.97 2.06 8.63 2.06 9.31 2.06 C9.64 11.96 9.97 21.86 10.31 32.06 C24.17 32.56 24.17 32.56 38.31 33.06 C38.26 29.87 38.26 29.87 38.21 26.61 C38.18 24.54 38.17 22.48 38.15 20.41 C38.13 18.98 38.11 17.54 38.09 16.11 C38.05 14.04 38.03 11.98 38.02 9.92 C38 8.68 37.99 7.44 37.97 6.16 C38.31 3.06 38.31 3.06 39.59 1.15 C42.6 -0.75 46.06 -0.24 49.5 -0.12 C50.25 -0.11 51 -0.1 51.77 -0.08 C53.62 -0.05 55.47 0.01 57.31 0.06 C58.88 3.2 58.44 6.55 58.43 10 C58.43 10.82 58.43 11.64 58.43 12.48 C58.43 15.2 58.42 17.92 58.41 20.63 C58.41 22.51 58.41 24.39 58.41 26.27 C58.4 31.23 58.39 36.18 58.38 41.14 C58.37 46.19 58.37 51.25 58.36 56.3 C58.35 66.22 58.33 76.14 58.31 86.06 C52.37 86.06 46.43 86.06 40.31 86.06 C40.31 85.4 40.31 84.74 40.31 84.06 C39.65 84.06 38.99 84.06 38.31 84.06 C37.98 73.5 37.65 62.94 37.31 52.06 C33.04 52.21 28.77 52.35 24.38 52.5 C23.03 52.54 21.68 52.59 20.29 52.63 C18.71 52.69 18.71 52.69 17.1 52.75 C15.47 52.8 15.47 52.8 13.81 52.86 C11.37 52.79 11.37 52.79 10.31 54.06 C10.17 56.34 10.08 58.62 10.03 60.91 C10.01 61.59 9.99 62.27 9.98 62.98 C9.92 65.17 9.86 67.37 9.81 69.56 C9.75 72.45 9.67 75.33 9.59 78.22 C9.56 79.51 9.53 80.79 9.5 82.12 C9.31 85.06 9.31 85.06 8.31 86.06 C5.51 86.19 2.74 86.25 -0.06 86.25 C-0.84 86.26 -1.62 86.27 -2.43 86.29 C-6.36 86.3 -8.34 86.29 -11.69 84.06 C-11.98 81.48 -12.08 79.13 -12.04 76.54 C-12.05 75.76 -12.05 74.99 -12.05 74.19 C-12.05 71.62 -12.03 69.04 -12.02 66.47 C-12.01 64.69 -12.01 62.91 -12.01 61.12 C-12.01 57.38 -11.99 53.64 -11.97 49.9 C-11.94 45.1 -11.93 40.3 -11.93 35.5 C-11.92 31.81 -11.91 28.13 -11.9 24.44 C-11.89 22.67 -11.89 20.9 -11.88 19.13 C-11.88 16.66 -11.86 14.19 -11.85 11.72 C-11.85 10.98 -11.85 10.25 -11.85 9.49 C-11.82 6.41 -11.67 4.01 -10.69 1.06 C-7.07 -0.14 -3.76 -0.05 0 0 Z " fill="#EBE3C6" transform="translate(773.6875,832.9375)"/>
<path d="M0 0 C1.7 -0.07 1.7 -0.07 3.43 -0.15 C7.76 0.55 8.87 2.04 11.69 5.38 C13.04 7.92 14 10.56 14.96 13.28 C15.25 14.06 15.54 14.83 15.84 15.64 C16.78 18.19 17.7 20.75 18.62 23.31 C19.28 25.09 19.93 26.87 20.58 28.65 C21.94 32.35 23.29 36.05 24.63 39.75 C26.65 45.28 28.71 50.79 30.78 56.3 C31.75 58.89 32.72 61.47 33.69 64.06 C34.31 65.72 34.93 67.38 35.56 69.04 C36.43 71.35 37.29 73.66 38.15 75.98 C38.54 77 38.54 77 38.94 78.04 C40.25 81.6 40.98 84.57 40.69 88.38 C37.77 88.48 34.86 88.56 31.94 88.62 C31.11 88.66 30.29 88.69 29.44 88.73 C25.86 88.78 23.43 88.81 20.3 86.98 C17.87 83.06 16.81 78.83 15.69 74.38 C12.02 74.35 8.35 74.33 4.69 74.31 C3.66 74.3 2.63 74.3 1.57 74.29 C-6.93 74.19 -6.93 74.19 -15.31 75.38 C-17 77.23 -17 77.23 -17.62 79.69 C-19.82 86.18 -19.82 86.18 -22.31 88.38 C-25.34 88.92 -28.3 88.84 -31.38 88.75 C-32.2 88.75 -33.03 88.75 -33.88 88.75 C-40.03 88.66 -40.03 88.66 -42.31 86.38 C-35.89 68.36 -29.3 50.41 -22.6 32.5 C-20.99 28.21 -19.41 23.92 -17.84 19.61 C-17.15 17.72 -16.45 15.83 -15.75 13.94 C-15.45 13.1 -15.15 12.27 -14.85 11.41 C-11.89 3.49 -8.64 0.25 0 0 Z " fill="#F4A50D" transform="translate(515.3125,831.625)"/>
<path d="M0 0 C5.76 5.07 9.85 9.5 10.56 17.38 C10.61 19.02 10.65 20.67 10.62 22.31 C7.69 22.39 4.75 22.45 1.81 22.5 C0.56 22.54 0.56 22.54 -0.71 22.58 C-1.52 22.59 -2.32 22.6 -3.14 22.61 C-4.25 22.63 -4.25 22.63 -5.38 22.65 C-8.92 22.05 -10.28 19.43 -12.38 16.69 C-14.22 14.07 -14.22 14.07 -17.38 13.31 C-25.21 12.69 -25.21 12.69 -32.38 15.31 C-33.74 17.84 -33.74 17.84 -34.38 20.31 C-30.84 24.26 -28.03 26.17 -23 27.81 C-21.16 28.43 -21.16 28.43 -19.29 29.06 C-17.31 29.7 -15.34 30.32 -13.36 30.95 C-12.01 31.38 -10.67 31.81 -9.33 32.25 C-7.47 32.84 -5.61 33.42 -3.75 34 C1.84 36.17 5.74 38.78 8.94 43.88 C9.43 44.64 9.92 45.4 10.43 46.19 C13.99 52.49 13.16 60.28 11.94 67.19 C9.38 73.27 4.69 78.62 -1.48 81.19 C-13.71 85.45 -27.18 86.04 -39.38 81.31 C-46.73 77.29 -53.27 72 -56.75 64.25 C-57.41 61.14 -57.66 58.49 -57.38 55.31 C-54.61 52.55 -52.54 52.37 -48.68 52.18 C-47.26 52.18 -47.26 52.18 -45.81 52.19 C-44.86 52.18 -43.91 52.18 -42.93 52.18 C-40.38 52.31 -40.38 52.31 -37.38 53.31 C-36.38 55.05 -36.38 55.05 -35.5 57.19 C-33.41 61.66 -31.16 63.26 -26.56 65 C-20.68 65.84 -15.88 65.59 -10.38 63.31 C-8.99 62.15 -8.99 62.15 -9.12 58.94 C-9.06 55.5 -9.06 55.5 -10.43 53.74 C-13.28 51.65 -16.45 50.84 -19.81 49.88 C-21.26 49.44 -22.71 49 -24.16 48.56 C-26.7 47.81 -29.24 47.06 -31.78 46.31 C-38.47 44.25 -43.84 41.61 -49.38 37.31 C-50.16 36.71 -50.94 36.12 -51.75 35.5 C-55.34 30.67 -56.7 25.35 -56.38 19.38 C-55.41 12.94 -53.23 7.09 -48.5 2.49 C-33.72 -8.32 -15.88 -7.94 0 0 Z " fill="#EBE3C6" transform="translate(734.375,836.6875)"/>
<path d="M0 0 C0.71 -0.02 1.42 -0.05 2.16 -0.07 C5.6 -0.06 7.51 0.09 10.01 2.53 C12.56 6.42 14.01 10.36 15.54 14.73 C15.86 15.62 16.18 16.52 16.52 17.45 C17.56 20.36 18.59 23.27 19.62 26.19 C20.34 28.19 21.06 30.18 21.77 32.18 C23.2 36.14 24.61 40.1 26.03 44.07 C28.59 51.23 31.22 58.37 33.88 65.5 C34.27 66.57 34.67 67.65 35.08 68.75 C37.02 74 37.02 74 39.11 79.19 C40.09 81.8 40.16 83.79 40 86.56 C37.08 86.7 34.17 86.8 31.25 86.88 C30.42 86.92 29.6 86.96 28.75 87 C22.69 87.12 22.69 87.12 19.61 84.61 C18 81.56 18 81.56 15 72.56 C-0.35 73.06 -0.35 73.06 -16 73.56 C-18.48 79.5 -18.48 79.5 -21 85.56 C-22 86.56 -22 86.56 -23.77 86.68 C-24.51 86.67 -25.26 86.67 -26.04 86.66 C-26.84 86.66 -27.65 86.65 -28.49 86.65 C-29.34 86.64 -30.19 86.63 -31.06 86.62 C-31.92 86.62 -32.77 86.62 -33.65 86.61 C-35.77 86.6 -37.88 86.58 -40 86.56 C-41.21 83.09 -40.79 81.16 -39.53 77.75 C-39.18 76.79 -38.83 75.83 -38.47 74.85 C-38.08 73.81 -37.69 72.78 -37.29 71.71 C-36.9 70.63 -36.5 69.55 -36.09 68.44 C-34.8 64.93 -33.49 61.44 -32.19 57.94 C-31.3 55.55 -30.42 53.17 -29.54 50.79 C-27.41 45.04 -25.27 39.3 -23.12 33.57 C-21.87 30.21 -20.62 26.84 -19.39 23.47 C-18.29 20.5 -17.18 17.53 -16.06 14.56 C-15.69 13.56 -15.32 12.56 -14.94 11.52 C-11.78 3.23 -9.38 -0.14 0 0 Z " fill="#EBE2C5" transform="translate(886,832.4375)"/>
<path d="M0 0 C1.3 0.01 2.6 0.01 3.94 0.02 C4.95 0.05 4.95 0.05 5.99 0.07 C8.03 0.12 10.07 0.13 12.11 0.14 C29.02 0.35 29.02 0.35 33.23 4.56 C34.23 9.92 34.23 14.22 33.23 19.56 C32.52 19.62 31.81 19.68 31.08 19.74 C29.7 19.87 29.7 19.87 28.29 20 C27.38 20.08 26.46 20.16 25.52 20.24 C23.27 20.32 23.27 20.32 22.23 21.56 C22.11 23.06 22.05 24.57 22.03 26.08 C22.01 27.04 21.99 28 21.96 28.99 C21.94 30.56 21.94 30.56 21.91 32.16 C21.89 33.22 21.87 34.28 21.85 35.38 C21.79 38.79 21.73 42.21 21.67 45.62 C21.62 47.93 21.58 50.24 21.54 52.54 C21.43 58.22 21.33 63.89 21.23 69.56 C22 69.6 22.77 69.63 23.57 69.67 C24.57 69.74 25.57 69.8 26.61 69.87 C27.6 69.93 28.6 69.99 29.63 70.05 C30.49 70.22 31.35 70.38 32.23 70.56 C34.71 74.27 34.47 76.27 34.42 80.68 C34.41 81.94 34.41 83.21 34.4 84.5 C34.23 87.56 34.23 87.56 33.23 88.56 C30.16 88.67 27.12 88.72 24.05 88.73 C23.13 88.73 22.2 88.73 21.25 88.74 C19.29 88.74 17.33 88.74 15.38 88.74 C12.38 88.75 9.38 88.76 6.38 88.78 C4.48 88.79 2.58 88.79 0.68 88.79 C-0.22 88.8 -1.12 88.8 -2.05 88.81 C-2.89 88.81 -3.73 88.8 -4.59 88.8 C-5.69 88.8 -5.69 88.8 -6.82 88.81 C-8.77 88.56 -8.77 88.56 -11.77 86.56 C-12.17 83.88 -12.17 83.88 -12.14 80.68 C-12.15 79.63 -12.16 78.59 -12.17 77.5 C-11.7 74.08 -11.5 72.72 -8.77 70.56 C-5.8 70.56 -2.83 70.56 0.23 70.56 C-0.1 54.06 -0.43 37.56 -0.77 20.56 C-4.07 19.9 -7.37 19.24 -10.77 18.56 C-12.04 16.02 -12.04 14.08 -12.14 11.25 C-12.19 10.3 -12.24 9.36 -12.29 8.38 C-11.05 1.66 -6.24 -0.07 0 0 Z " fill="#F4A50D" transform="translate(338.76953125,831.44140625)"/>
<path d="M0 0 C1.87 1.88 1.87 1.88 3 4 C2.57 6.13 2.57 6.13 2 8 C0.97 8.02 -0.06 8.04 -1.12 8.06 C-64.78 9.33 -134.56 18.76 -188 57 C-188.66 56.67 -189.32 56.34 -190 56 C-189.35 55.59 -188.7 55.18 -188.03 54.76 C-187.2 54.22 -186.36 53.68 -185.5 53.12 C-184.66 52.59 -183.83 52.06 -182.97 51.51 C-182.32 51.01 -181.67 50.51 -181 50 C-181 49.34 -181 48.68 -181 48 C-179.37 46.66 -179.37 46.66 -177.07 45.13 C-176.22 44.56 -175.37 43.99 -174.5 43.41 C-173.57 42.8 -172.64 42.19 -171.69 41.56 C-170.74 40.94 -169.79 40.31 -168.81 39.66 C-159.74 33.74 -150.47 28.25 -141 23 C-140.28 22.6 -139.57 22.2 -138.83 21.79 C-101.63 1.07 -41.63 -21.81 0 0 Z " fill="#F4A50D" transform="translate(629,322)"/>
<path d="M0 0 C0.99 0.33 1.98 0.66 3 1 C3.33 11.89 3.66 22.78 4 34 C6.32 34.18 6.32 34.18 9.06 32.06 C13.25 29.62 17.17 28.8 22 29 C27.81 30.74 31.82 34.96 35 40 C37.93 47.69 37.37 56.22 35 64 C32.07 68.24 28.93 71.3 24 73 C16.8 74.05 11.91 73.18 6 69 C5.01 68.34 4.02 67.68 3 67 C3 68.32 3 69.64 3 71 C1.02 70.67 -0.96 70.34 -3 70 C-3.07 61.32 -3.12 52.63 -3.16 43.95 C-3.17 39.92 -3.19 35.88 -3.23 31.85 C-3.26 27.96 -3.28 24.07 -3.28 20.18 C-3.29 18.7 -3.3 17.21 -3.32 15.73 C-3.34 13.65 -3.34 11.57 -3.34 9.49 C-3.35 8.31 -3.35 7.12 -3.36 5.9 C-3 3 -3 3 -1.48 1.09 C-0.99 0.73 -0.5 0.37 0 0 Z " fill="#EBE2C5" transform="translate(734,939)"/>
<path d="M0 0 C4.46 2.97 7.13 6.81 8.81 11.88 C8.99 14.81 9.09 17.69 9.12 20.62 C9.15 21.41 9.18 22.2 9.21 23.01 C9.28 28.82 8.14 32.1 4.81 36.88 C-0.12 41.45 -4.08 42.22 -10.62 42.16 C-16.15 41.54 -19.82 38.15 -24.19 34.88 C-24.19 43.46 -24.19 52.03 -24.19 60.88 C-29.19 59.88 -29.19 59.88 -30.19 58.88 C-30.29 57.14 -30.32 55.4 -30.32 53.67 C-30.32 52.56 -30.32 51.45 -30.33 50.3 C-30.32 49.09 -30.32 47.88 -30.32 46.63 C-30.32 45.4 -30.32 44.16 -30.32 42.89 C-30.32 39.6 -30.32 36.31 -30.31 33.02 C-30.31 31.01 -30.31 28.99 -30.32 26.97 C-30.32 23.11 -30.32 19.25 -30.32 15.38 C-30.32 13.57 -30.32 13.57 -30.33 11.73 C-30.32 10.61 -30.32 9.49 -30.32 8.34 C-30.32 7.36 -30.32 6.37 -30.31 5.36 C-30.19 2.88 -30.19 2.88 -29.19 -0.12 C-26.81 0.19 -26.81 0.19 -24.19 0.88 C-23.2 2.36 -23.2 2.36 -22.19 3.88 C-21.64 3.53 -21.1 3.18 -20.54 2.82 C-19.47 2.13 -19.47 2.13 -18.38 1.44 C-17.67 0.99 -16.96 0.53 -16.23 0.07 C-10.79 -3.1 -5.65 -1.99 0 0 Z " fill="#EBE3C6" transform="translate(962.1875,970.125)"/>
<path d="M0 0 C1.32 0.66 2.64 1.32 4 2 C4.88 10.84 1.24 18.35 -1.96 26.42 C-9.14 44.53 -13.72 61.51 -15 81 C-15.07 82.02 -15.07 82.02 -15.14 83.06 C-15.92 96.23 -13.55 109.04 -11.46 122 C-10.85 125.99 -10.4 129.98 -10 134 C-13 133 -13 133 -14 131.41 C-14.43 130.39 -14.43 130.39 -14.87 129.34 C-15.19 128.58 -15.52 127.81 -15.85 127.02 C-16.36 125.77 -16.36 125.77 -16.88 124.5 C-17.23 123.65 -17.58 122.79 -17.94 121.92 C-29.66 92.79 -33.1 60.51 -20.98 30.91 C-15.82 19.07 -9.29 9.06 0 0 Z " fill="#F4A50D" transform="translate(396,562)"/>
<path d="M0 0 C5.13 4.56 8.33 10.69 9.02 17.54 C9.17 24.57 7.77 30.4 4 36.38 C-0.01 40.27 -3.6 41.69 -9.12 41.94 C-16 41.73 -19.76 38.57 -25.19 34.5 C-25.19 43.08 -25.19 51.66 -25.19 60.5 C-26.84 60.17 -28.49 59.84 -30.19 59.5 C-30.21 51.97 -30.23 44.44 -30.24 36.92 C-30.24 33.42 -30.25 29.93 -30.26 26.43 C-30.28 22.42 -30.28 18.4 -30.29 14.38 C-30.29 13.12 -30.3 11.87 -30.3 10.57 C-30.3 9.41 -30.3 8.25 -30.3 7.05 C-30.3 6.03 -30.31 5 -30.31 3.94 C-30.19 1.5 -30.19 1.5 -29.19 -0.5 C-27.31 -0.25 -27.31 -0.25 -25.19 0.5 C-23.94 2.56 -23.94 2.56 -23.19 4.5 C-22.45 3.6 -22.45 3.6 -21.69 2.69 C-15.05 -3.12 -7.94 -3.74 0 0 Z " fill="#EBE2C5" transform="translate(646.1875,970.5)"/>
<path d="M0 0 C1.28 0 1.28 0 2.59 0.01 C3.83 -0.01 3.83 -0.01 5.1 -0.04 C11.14 -0.04 17.33 0.48 22.02 4.74 C26.27 9.63 26.71 13.9 26.84 20.13 C26.89 21.18 26.89 21.18 26.95 22.25 C27.02 26.2 26.65 28.59 24.12 31.71 C17.68 38.03 11.08 37.54 2.45 38.04 C-0.42 37.99 -0.42 37.99 -1.54 39.32 C-1.7 41.39 -1.79 43.47 -1.86 45.54 C-1.9 46.8 -1.94 48.07 -1.98 49.36 C-2.02 50.7 -2.06 52.04 -2.1 53.38 C-2.14 54.73 -2.19 56.07 -2.23 57.42 C-2.34 60.72 -2.44 64.02 -2.54 67.32 C-4.21 67.36 -5.87 67.36 -7.54 67.32 C-9.34 65.52 -8.68 62.79 -8.68 60.37 C-8.69 59.09 -8.7 57.82 -8.7 56.5 C-8.71 55.1 -8.71 53.7 -8.71 52.29 C-8.71 50.87 -8.71 49.44 -8.72 48.01 C-8.72 45.01 -8.72 42.01 -8.72 39.01 C-8.72 35.16 -8.74 31.32 -8.76 27.47 C-8.77 24.52 -8.77 21.56 -8.77 18.61 C-8.77 17.19 -8.77 15.77 -8.78 14.36 C-8.79 12.37 -8.79 10.39 -8.78 8.41 C-8.78 7.28 -8.78 6.15 -8.79 4.99 C-8.26 -0.64 -4.6 0.04 0 0 Z " fill="#EBE3C6" transform="translate(181.5390625,942.677734375)"/>
<path d="M0 0 C2.14 1.61 3.5 2.98 5 5.19 C5.4 5.78 5.81 6.36 6.23 6.97 C9.37 12.28 8.77 18.74 8.25 24.69 C5.74 29.97 2.04 33.18 -3.07 35.94 C-9.72 37.79 -14.73 36.92 -20.75 33.69 C-25.21 30.69 -27.74 27.99 -29.35 22.93 C-30.46 16.81 -29.58 10.44 -26.09 5.23 C-19.69 -2.16 -8.94 -4.26 0 0 Z " fill="#EBE3C6" transform="translate(638.75390625,358.3125)"/>
<path d="M0 0 C3.96 2.82 6.76 5.53 7.63 10.5 C7.79 12.97 7.8 15.4 7.75 17.88 C7.77 18.71 7.78 19.55 7.8 20.41 C7.77 24.49 7.6 26.75 5.41 30.28 C-0.03 35.41 -5.16 35.57 -12.32 35.46 C-18.53 35.08 -22.4 32.67 -26.75 28.31 C-30.23 22.58 -30.25 17.67 -28.75 11.31 C-26.61 5.77 -23.2 2.1 -17.93 -0.63 C-11.57 -3.41 -6.19 -3.14 0 0 Z " fill="#EBE3C6" transform="translate(663.75,414.6875)"/>
<path d="M0 0 C5.25 2.53 8.39 6.18 11.25 11.19 C12.66 16.49 13.2 21.47 10.8 26.54 C8.34 30.34 5.99 33.75 2 36 C-4.36 36.96 -11.06 37.38 -16.98 34.61 C-21.08 31.53 -23.46 28.95 -25 24 C-25.81 18.23 -25.41 12.91 -22.44 7.83 C-16.54 0.35 -9.22 -1.54 0 0 Z " fill="#EBE3C6" transform="translate(671,461)"/>
<path d="M0 0 C5.14 2.8 8.05 6.95 9.88 12.44 C9.88 15.08 9.88 17.72 9.88 20.44 C-0.02 20.77 -9.93 21.1 -20.12 21.44 C-21.32 26.23 -20.61 27.47 -18.35 31.6 C-16.55 34.3 -15.2 35.35 -12.12 36.44 C-7.37 37.13 -4.1 36.95 0.19 34.69 C2.56 32.7 4.77 30.7 6.88 28.44 C7.87 29.43 8.86 30.42 9.88 31.44 C8.44 36.47 5.97 38.43 1.88 41.44 C-4.26 43.48 -11.63 43.54 -17.56 40.81 C-22.24 38.05 -25.09 34.62 -27.44 29.69 C-29.22 21.28 -28.45 13.96 -24.12 6.44 C-18.11 -0.81 -8.68 -3.78 0 0 Z " fill="#EBE3C6" transform="translate(513.125,969.5625)"/>
<path d="M0 0 C5.14 2.8 8.05 6.95 9.88 12.44 C9.88 15.08 9.88 17.72 9.88 20.44 C-0.02 20.77 -9.92 21.1 -20.12 21.44 C-21.4 25.26 -20.68 26.88 -19.19 30.5 C-17.4 33.76 -15.49 34.94 -12.12 36.44 C-7.83 37.1 -4.33 36.95 -0.31 35.25 C2.14 33.22 3.92 30.94 5.88 28.44 C6.53 28.44 7.2 28.44 7.88 28.44 C8.53 30.09 9.2 31.74 9.88 33.44 C6.61 37.76 4.17 40.7 -1.12 42.44 C-8.38 43.37 -14.07 42.86 -20.29 38.86 C-24.71 35.44 -26.87 31.85 -28.12 26.44 C-28.98 18.48 -27.31 11.84 -23 5.12 C-16.44 -1.01 -8.55 -3.69 0 0 Z " fill="#EBE3C6" transform="translate(1008.125,969.5625)"/>
<path d="M0 0 C5.9 2.95 10.52 7.9 13 14 C14.09 19.5 12.7 24.16 10 29 C4.46 34.14 0.6 34.35 -6.8 34.28 C-10.95 33.92 -12.99 32.86 -16 30 C-16.95 29.15 -17.9 28.31 -18.88 27.44 C-21.71 23.82 -21.65 20.14 -21.39 15.68 C-20.79 11.59 -20.06 8.88 -17 6 C-6.26 -0.84 -6.26 -0.84 0 0 Z " fill="#EBE3C6" transform="translate(684,511)"/>
<path d="M0 0 C4.22 3.4 6.57 5.83 7.26 11.38 C7.43 16.42 7.36 20.25 5.25 24.88 C1.3 28.93 -1.8 31.52 -7.56 31.81 C-13.69 31.5 -17.86 28.91 -22 24.5 C-24.84 20.24 -25.6 17.16 -24.75 12.08 C-23.14 6.09 -20.34 2.61 -15.12 -0.69 C-9.43 -3.36 -5.49 -2.97 0 0 Z " fill="#000000" transform="translate(391.125,975.6875)"/>
<path d="M0 0 C1.24 0 2.48 0.01 3.76 0.01 C4.42 0.01 5.08 0.01 5.76 0.01 C7.16 0.02 8.55 0.02 9.95 0.04 C12.09 0.06 14.24 0.06 16.38 0.06 C26.89 0.1 26.89 0.1 28.03 1.24 C28.03 2.89 28.03 4.54 28.03 6.24 C19.45 6.24 10.87 6.24 2.03 6.24 C1.7 12.84 1.37 19.44 1.03 26.24 C13.9 26.74 13.9 26.74 27.03 27.24 C27.53 29.72 27.53 29.72 28.03 32.24 C19.45 32.57 10.87 32.9 2.03 33.24 C2.01 37.72 1.99 42.2 1.97 46.68 C1.96 47.96 1.96 49.24 1.95 50.56 C1.94 51.77 1.94 52.99 1.94 54.24 C1.93 55.36 1.93 56.49 1.92 57.65 C1.74 60.17 1.74 60.17 3.03 61.24 C4.81 61.4 6.6 61.49 8.38 61.56 C9.46 61.6 10.54 61.64 11.65 61.69 C12.79 61.73 13.93 61.76 15.1 61.81 C16.24 61.85 17.38 61.89 18.55 61.94 C21.38 62.04 24.21 62.14 27.03 62.24 C27.53 64.72 27.53 64.72 28.03 67.24 C23.5 67.27 18.96 67.29 14.42 67.3 C12.87 67.3 11.33 67.31 9.78 67.32 C7.57 67.33 5.35 67.34 3.13 67.34 C2.09 67.35 2.09 67.35 1.03 67.36 C-0.64 67.36 -2.3 67.3 -3.97 67.24 C-5.77 65.44 -5.1 62.71 -5.11 60.29 C-5.12 59.01 -5.12 57.74 -5.13 56.42 C-5.13 55.02 -5.13 53.62 -5.13 52.22 C-5.14 50.79 -5.14 49.36 -5.14 47.93 C-5.15 44.93 -5.15 41.93 -5.15 38.93 C-5.15 35.09 -5.16 31.24 -5.18 27.39 C-5.19 24.44 -5.19 21.49 -5.19 18.53 C-5.19 17.11 -5.2 15.7 -5.21 14.28 C-5.22 12.29 -5.21 10.31 -5.21 8.33 C-5.21 7.2 -5.21 6.07 -5.21 4.91 C-4.85 1 -3.87 0.32 0 0 Z " fill="#EBE3C6" transform="translate(852.965087890625,942.757080078125)"/>
<path d="M0 0 C1.32 0.66 2.64 1.32 4 2 C4.33 13.55 4.66 25.1 5 37 C5.66 35.68 6.32 34.36 7 33 C11.33 30.32 16.18 28.58 21.31 29 C26.55 30.42 29.02 32.53 32 37 C33.08 40.96 33.12 44.74 33.1 48.83 C33.09 50.12 33.09 51.42 33.09 52.75 C33.08 54.1 33.07 55.46 33.06 56.81 C33.06 58.19 33.05 59.56 33.05 60.94 C33.04 64.29 33.02 67.65 33 71 C31.33 71.04 29.67 71.04 28 71 C26.2 69.2 26.81 66.42 26.75 63.99 C26.7 62.14 26.7 62.14 26.65 60.25 C26.59 57.65 26.54 55.04 26.48 52.43 C26.43 50.57 26.43 50.57 26.38 48.68 C26.35 47.54 26.33 46.41 26.3 45.24 C25.99 41.89 25.18 39.13 24 36 C19.27 35.22 15.24 34.66 10.56 35.94 C6.33 39.34 5.25 43.77 4.67 49 C4.48 52.33 4.38 55.66 4.31 59 C4.28 60.16 4.24 61.31 4.21 62.5 C4.13 65.34 4.06 68.17 4 71 C2.33 71.04 0.67 71.04 -1 71 C-2.85 69.15 -2.14 66.15 -2.15 63.68 C-2.15 63.02 -2.15 62.36 -2.16 61.68 C-2.16 59.48 -2.17 57.29 -2.17 55.1 C-2.17 53.58 -2.17 52.06 -2.18 50.54 C-2.18 47.36 -2.19 44.17 -2.19 40.98 C-2.19 36.89 -2.2 32.8 -2.22 28.71 C-2.23 25.57 -2.23 22.44 -2.23 19.3 C-2.23 17.79 -2.23 16.28 -2.24 14.77 C-2.25 12.67 -2.25 10.56 -2.24 8.45 C-2.24 7.25 -2.25 6.05 -2.25 4.82 C-2 2 -2 2 0 0 Z " fill="#EBE3C6" transform="translate(221,939)"/>
<path d="M0 0 C0.99 0.33 1.98 0.66 3 1 C3.33 12.88 3.66 24.76 4 37 C4.66 36.34 5.32 35.68 6 35 C6 34.34 6 33.68 6 33 C12.43 29.93 16.99 28.1 24 30 C28.33 32.6 30.08 35.39 32 40 C32.34 43.53 32.34 43.53 32.29 47.37 C32.29 48.05 32.28 48.73 32.28 49.43 C32.26 51.58 32.23 53.73 32.19 55.88 C32.17 57.34 32.16 58.81 32.15 60.27 C32.11 63.85 32.06 67.42 32 71 C30.33 71.04 28.67 71.04 27 71 C25.16 69.16 25.8 66.17 25.75 63.7 C25.72 62.41 25.69 61.12 25.65 59.8 C25.61 57.74 25.56 55.69 25.52 53.64 C25.48 51.66 25.43 49.68 25.38 47.7 C25.35 46.51 25.33 45.32 25.3 44.1 C25.01 41.15 24.61 39.46 23 37 C19.76 34.69 16.9 34.61 13 35 C9.7 35.77 9.7 35.77 7 38 C3.48 44.71 3.47 52.16 3.31 59.56 C3.28 60.67 3.24 61.77 3.21 62.91 C3.13 65.61 3.06 68.3 3 71 C1.02 70.67 -0.96 70.34 -3 70 C-3.07 61.32 -3.12 52.63 -3.16 43.95 C-3.17 39.92 -3.19 35.88 -3.23 31.85 C-3.26 27.96 -3.28 24.07 -3.28 20.18 C-3.29 18.7 -3.3 17.21 -3.32 15.73 C-3.34 13.65 -3.34 11.57 -3.34 9.49 C-3.35 8.31 -3.35 7.12 -3.36 5.9 C-3 3 -3 3 -1.48 1.09 C-0.99 0.73 -0.5 0.37 0 0 Z " fill="#EBE3C6" transform="translate(442,939)"/>
<path d="M0 0 C4.27 2.62 6.39 5.27 8 10 C8.85 17.35 8.62 23.96 4 30 C0.64 32.98 -2.45 33.54 -6.94 33.35 C-11.51 32.57 -14.85 30.34 -17.88 26.81 C-20.81 19.48 -20.25 13.7 -17.31 6.39 C-13.6 -0.38 -7.16 -1.6 0 0 Z " fill="#000000" transform="translate(587,974)"/>
<path d="M0 0 C4.63 3.47 6.68 7.49 8 13 C8.81 18.75 7.78 23.91 5 29 C2.8 31.59 1.3 32.74 -2.04 33.41 C-7.25 33.76 -11.07 32.62 -15.34 29.62 C-19.13 25.93 -19.83 21.59 -20.38 16.5 C-19.78 10.96 -18.63 6.63 -14.62 2.62 C-9.38 -0.62 -6.16 -1.65 0 0 Z " fill="#000000" transform="translate(958,974)"/>
<path d="M0 0 C4.48 3.7 7.23 7.21 8 13 C8.31 19.55 7.92 24.3 4 29.81 C1.31 32.76 0.48 32.95 -3.56 33.38 C-8.83 33.28 -12.99 31.37 -17 28 C-20 23.46 -20.66 18.34 -20 13 C-18.58 7.84 -16.68 4.01 -12.25 0.88 C-7.72 -1.55 -4.9 -1.45 0 0 Z " fill="#000000" transform="translate(641,974)"/>
<path d="M0 0 C3.84 2.44 6.02 4.92 8 9 C8.32 11.75 8.47 14.2 8.44 16.94 C8.47 17.97 8.47 17.97 8.5 19.03 C8.49 24.16 7.19 27.04 4 31 C1.03 33.33 -2.18 33.43 -5.91 33.3 C-10.35 32.66 -13.59 30.85 -16.32 27.27 C-19.15 22.3 -19.83 17.63 -19 12 C-17.37 6.77 -15.57 4.01 -11 1 C-10.38 0.57 -9.76 0.13 -9.12 -0.31 C-5.79 -1.39 -3.36 -0.83 0 0 Z " fill="#000000" transform="translate(756,974)"/>
<path d="M0 0 C3.85 2.03 6.16 4.65 8.44 8.31 C9.54 13.58 9.64 18.21 7.81 23.31 C5.65 26.53 4.46 28.16 1 30 C-4.64 30.78 -9.37 30.82 -14.5 28.25 C-15.33 27.51 -16.15 26.76 -17 26 C-17.71 25.42 -18.41 24.84 -19.14 24.24 C-21.57 21.32 -21.45 19.68 -21.31 15.94 C-21.29 14.89 -21.26 13.85 -21.24 12.78 C-20.77 7.31 -18.57 4.9 -14.52 1.48 C-9.84 -1.27 -5.2 -1.14 0 0 Z " fill="#EBE3C6" transform="translate(704,558)"/>
<path d="M0 0 C0.99 0.33 1.98 0.66 3 1 C3.05 1.83 3.1 2.66 3.15 3.52 C3.22 4.61 3.3 5.69 3.38 6.81 C3.48 8.43 3.48 8.43 3.59 10.08 C3.81 13.19 3.81 13.19 6 16 C9.05 17.21 9.05 17.21 12 18 C12 18.99 12 19.98 12 21 C8.04 21.5 8.04 21.5 4 22 C4 33.55 4 45.1 4 57 C2.35 57 0.7 57 -1 57 C-3.01 54.99 -2.26 51 -2.32 48.25 C-2.34 47.47 -2.36 46.7 -2.38 45.9 C-2.44 43.41 -2.5 40.92 -2.56 38.44 C-2.61 36.76 -2.65 35.07 -2.69 33.39 C-2.8 29.26 -2.9 25.13 -3 21 C-5.26 21.12 -7.51 21.26 -9.77 21.4 C-11.65 21.51 -11.65 21.51 -13.58 21.62 C-18.11 22.12 -19.84 22.75 -23 26 C-26.52 32.3 -26.54 38.33 -26.69 45.44 C-26.72 46.55 -26.76 47.66 -26.79 48.81 C-26.87 51.54 -26.94 54.27 -27 57 C-28.67 57.04 -30.33 57.04 -32 57 C-33.81 55.19 -33.13 52.71 -33.14 50.3 C-33.14 49.5 -33.13 48.7 -33.13 47.88 C-33.13 47.06 -33.13 46.25 -33.14 45.41 C-33.14 43.68 -33.13 41.95 -33.13 40.23 C-33.13 37.58 -33.13 34.93 -33.14 32.28 C-33.14 30.6 -33.13 28.93 -33.13 27.25 C-33.13 26.46 -33.14 25.66 -33.14 24.84 C-33.11 19.23 -33.11 19.23 -32 17 C-29.62 17.25 -29.62 17.25 -27 18 C-25.69 20.06 -25.69 20.06 -25 22 C-24.28 21.22 -23.56 20.43 -22.81 19.62 C-20.09 17.09 -18.57 15.87 -15 15 C-12.12 15.31 -12.12 15.31 -9 16 C-6.67 16.34 -4.33 16.68 -2 17 C-2.02 15.94 -2.05 14.88 -2.07 13.79 C-2.09 12.4 -2.11 11.01 -2.12 9.62 C-2.14 8.93 -2.16 8.23 -2.18 7.51 C-2.19 5.67 -2.1 3.83 -2 2 C-1.34 1.34 -0.68 0.68 0 0 Z " fill="#EBE2C4" transform="translate(1063,953)"/>
<path d="M0 0 C1.69 1.19 3.29 2.49 4.88 3.8 C5.54 2.48 6.2 1.16 6.88 -0.2 C8.2 0.13 9.52 0.46 10.88 0.8 C11.21 13.67 11.54 26.54 11.88 39.8 C10.23 39.8 8.58 39.8 6.88 39.8 C6.22 38.48 5.56 37.16 4.88 35.8 C4.12 36.61 3.35 37.41 2.57 38.24 C-1.53 42.15 -5.08 42.15 -10.49 42.08 C-15.99 41.5 -20.27 39.04 -24 34.99 C-27.7 29.44 -29.1 23.45 -28.12 16.8 C-26.25 10.5 -23.94 4.21 -18.18 0.59 C-12.04 -2.57 -6.22 -3.5 0 0 Z M-17.12 6.8 C-20.64 11.34 -22.39 17.08 -22.12 22.8 C-21.24 27.53 -20.05 30.87 -16.62 34.3 C-12.26 36.92 -8.12 37.47 -3.12 36.8 C0.76 34.97 2.48 33.44 4.75 29.8 C6.83 23.98 7.14 17.17 4.96 11.36 C2.43 6.93 -0.19 4.48 -5.12 2.8 C-10.05 2.8 -13.15 3.9 -17.12 6.8 Z " fill="#EBE2C5" transform="translate(589.12109375,970.1953125)"/>
<path d="M0 0 C4.7 3.28 7.86 7.4 9.69 12.88 C9.83 15.16 9.91 17.46 9.94 19.75 C9.96 20.96 9.99 22.18 10.02 23.43 C9.43 29.55 6.06 32.82 1.69 36.88 C-3.11 40.82 -7.25 41.29 -13.33 41.21 C-19.91 40.47 -25.33 37.31 -29.81 32.5 C-33.33 27.89 -34.37 23.74 -34.19 17.94 C-32.99 10.89 -29.87 5.52 -24.22 1.13 C-16.51 -3.95 -8.2 -4.66 0 0 Z M-22.1 6.32 C-26.15 10.61 -27.96 14.98 -28.31 20.88 C-27.67 27.04 -24.84 29.7 -20.29 33.49 C-16.02 36.48 -11.33 36.49 -6.31 35.88 C-1.48 33.5 1.45 30.78 3.69 25.88 C4.65 19.54 4.88 13.68 1.12 8.25 C-1.98 4.77 -4.87 3.22 -9.31 1.88 C-14.15 1.88 -18.35 3.29 -22.1 6.32 Z " fill="#EBE3C6" transform="translate(394.3125,971.125)"/>
<path d="M0 0 C2.25 -0.06 2.25 -0.06 5 1 C6.85 3.76 7.86 6.89 9 10 C9.77 12.09 10.54 14.17 11.32 16.26 C11.85 17.7 12.38 19.14 12.89 20.59 C14.35 24.65 14.35 24.65 17 28 C18.99 23.25 20.86 18.48 22.46 13.59 C22.72 12.82 22.97 12.05 23.23 11.27 C23.74 9.72 24.24 8.18 24.72 6.63 C25.44 4.46 25.44 4.46 27 1 C29.04 0.22 29.04 0.22 31 0 C31.33 0.33 31.66 0.66 32 1 C31.58 7.88 29.54 13.92 27.25 20.39 C26.7 22 26.7 22 26.13 23.63 C25.35 25.88 24.56 28.13 23.77 30.37 C22.56 33.82 21.36 37.26 20.17 40.71 C19.41 42.9 18.64 45.08 17.88 47.27 C17.52 48.3 17.16 49.33 16.79 50.39 C16.46 51.35 16.12 52.3 15.77 53.29 C15.48 54.13 15.18 54.97 14.88 55.83 C14 58 14 58 12 61 C10.68 60.67 9.36 60.34 8 60 C8.52 55.14 9.58 51.11 11.48 46.6 C13.37 37.19 8.67 27.85 5.44 19.19 C4.65 17.08 3.88 14.97 3.1 12.86 C2.41 10.96 1.7 9.06 0.99 7.16 C0 4 0 4 0 0 Z " fill="#EBE3C6" transform="translate(778,970)"/>
<path d="M0 0 C2.25 -0.06 2.25 -0.06 5 1 C6.64 4.01 7.81 6.79 9 10 C9.9 12.34 10.81 14.68 11.73 17.02 C12.36 18.67 13 20.32 13.63 21.97 C13.92 22.73 14.21 23.49 14.51 24.28 C14.77 24.97 15.04 25.66 15.31 26.38 C15.88 28.01 15.88 28.01 17 29 C17.42 27.74 17.42 27.74 17.85 26.45 C18.91 23.32 19.98 20.21 21.05 17.09 C21.52 15.74 21.97 14.39 22.43 13.04 C23.08 11.09 23.75 9.16 24.42 7.22 C24.82 6.05 25.22 4.89 25.63 3.68 C27 1 27 1 29.04 0.05 C31 0 31 0 33 1 C30.65 10.49 27.42 19.62 24.12 28.81 C23.34 31.01 22.56 33.21 21.78 35.41 C21.27 36.85 20.75 38.29 20.24 39.72 C18.99 43.19 17.78 46.65 16.64 50.16 C16.43 50.81 16.21 51.46 15.99 52.13 C15.4 53.9 14.84 55.67 14.27 57.44 C13 60 13 60 10.98 61 C10.32 61 9.67 61 9 61 C8.34 60.34 7.68 59.68 7 59 C7.56 57.53 7.56 57.53 8.13 56.04 C8.61 54.71 9.09 53.39 9.56 52.06 C9.81 51.42 10.06 50.78 10.31 50.12 C14.15 39.26 9.25 29.41 5.44 19.19 C4.65 17.08 3.88 14.97 3.1 12.86 C2.41 10.96 1.7 9.06 0.99 7.16 C0 4 0 4 0 0 Z " fill="#EBE2C5" transform="translate(264,970)"/>
<path d="M0 0 C1.65 0 3.3 0 5 0 C6.3 3.16 7.59 6.33 8.88 9.5 C9.24 10.39 9.6 11.27 9.98 12.19 C12.09 17.41 13.78 22.49 15 28 C15.99 27.67 16.98 27.34 18 27 C19.2 24.43 19.2 24.43 20.12 21.25 C20.5 20.08 20.88 18.92 21.27 17.72 C22.05 15.24 22.82 12.76 23.6 10.28 C23.98 9.12 24.35 7.95 24.75 6.75 C25.08 5.67 25.42 4.59 25.77 3.48 C27 1 27 1 29.02 0.08 C31 0 31 0 33 1 C30.16 11.77 26.74 22.3 23.21 32.86 C22.48 35.05 21.76 37.25 21.05 39.45 C20.01 42.64 18.95 45.83 17.88 49.01 C17.57 50 17.25 50.98 16.93 52 C16.62 52.91 16.31 53.81 15.99 54.75 C15.72 55.55 15.46 56.35 15.19 57.17 C14 59 14 59 11.38 59.77 C10.59 59.84 9.81 59.92 9 60 C7.52 55.55 9.46 52.57 11.09 48.3 C12.95 41.56 12.13 36.33 9.63 29.9 C9.39 29.26 9.15 28.63 8.9 27.97 C8.13 25.95 7.35 23.95 6.56 21.94 C5.78 19.93 5.01 17.91 4.24 15.9 C3.54 14.07 2.83 12.24 2.12 10.42 C0.98 6.93 0.41 3.64 0 0 Z " fill="#EBE3C6" transform="translate(662,970)"/>
<path d="M0 0 C6.16 0.19 11.48 1.45 16 5.75 C18.1 10.96 18.34 15.77 17.44 21.31 C15.22 24.54 13.93 25.92 10.15 26.92 C7.13 27.36 4.24 27.45 1.19 27.44 C-0.4 27.44 -0.4 27.44 -2.02 27.45 C-4.56 27.31 -4.56 27.31 -5.56 26.31 C-5.82 22.34 -5.75 18.35 -5.75 14.38 C-5.76 13.25 -5.77 12.13 -5.79 10.97 C-5.79 9.9 -5.79 8.83 -5.79 7.72 C-5.8 6.73 -5.8 5.75 -5.81 4.73 C-5.39 0.6 -3.98 0.35 0 0 Z " fill="#000000" transform="translate(184.5625,947.6875)"/>
<path d="M0 0 C4.15 3.59 6.79 7.21 7.44 12.69 C7.4 17.15 5.65 19.35 2.7 22.55 C-0.36 25.16 -2.25 26.03 -6.31 25.88 C-11.78 24.58 -15.63 22.93 -19 18.19 C-20.42 13.65 -20.2 10.35 -18.02 6.07 C-16.03 2.97 -14.47 1.25 -11.19 -0.5 C-7.19 -1.13 -3.83 -1.46 0 0 Z " fill="#EBE3C6" transform="translate(714,602)"/>
<path d="M0 0 C2.06 1.45 3.3 3.1 4.69 5.19 C4.03 6.51 3.37 7.83 2.69 9.19 C-0.08 8.16 -2.34 7.17 -4.75 5.44 C-7.35 3.84 -7.35 3.84 -10.56 4.94 C-13.17 5.93 -13.17 5.93 -14.31 7.19 C-14.35 8.85 -14.36 10.52 -14.31 12.19 C-10.63 14.33 -7 16.35 -3.12 18.12 C0.52 19.98 2.77 21.43 4.69 25.19 C5.29 28.97 5.36 32.42 4.69 36.19 C2.16 39.6 0.69 40.85 -3.31 42.19 C-9.27 42.95 -13.96 43.01 -18.94 39.38 C-21.5 37.25 -22.23 36.43 -23.31 33.19 C-21.25 31.88 -21.25 31.88 -18.31 31.19 C-16.67 32.17 -16.67 32.17 -14.94 33.56 C-12.1 35.84 -11.35 36.18 -7.5 36.62 C-4.22 36.5 -4.22 36.5 -2.31 34.19 C-1.98 31.09 -1.99 28.93 -3.25 26.06 C-5.91 23.64 -8.73 22.56 -12.02 21.18 C-16.4 19.28 -19.52 17.61 -21.88 13.38 C-22.54 8.55 -20.8 5.25 -18 1.38 C-12.26 -2.66 -6.4 -2.25 0 0 Z " fill="#EBE3C6" transform="translate(1102.3125,969.8125)"/>
<path d="M0 0 C3.06 2.31 3.06 2.31 5 5 C5 6.32 5 7.64 5 9 C1.87 8.54 -0.16 7.91 -2.94 6.31 C-5.99 4.64 -5.99 4.64 -9.38 5.81 C-10.24 6.2 -11.11 6.6 -12 7 C-12.33 8.98 -12.66 10.96 -13 13 C-9.32 15.15 -5.68 17.16 -1.81 18.94 C1.83 20.79 4.08 22.25 6 26 C6.6 29.78 6.67 33.23 6 37 C3.47 40.41 2 41.67 -2 43 C-7.98 43.76 -12.68 43.8 -17.69 40.19 C-19.64 38.61 -19.64 38.61 -21 37 C-21 36.01 -21 35.02 -21 34 C-19.68 33.34 -18.36 32.68 -17 32 C-15.99 32.83 -14.98 33.65 -13.94 34.5 C-10.22 37.15 -7.61 37.71 -3 37 C-0.89 35.98 -0.89 35.98 0 34 C-0.2 30.12 -1.41 27.83 -4 25 C-6.35 23.7 -8.63 22.54 -11.06 21.44 C-17.74 18.39 -17.74 18.39 -20 15 C-20.34 11.38 -20.27 8.73 -19 5.31 C-13.95 -0.53 -7.38 -2.44 0 0 Z " fill="#EBE3C6" transform="translate(324,969)"/>
<path d="M0 0 C2.77 -0.34 2.77 -0.34 6 0 C7.98 2.34 7.98 2.34 9.62 5.38 C12.28 10.32 12.28 10.32 17 13 C17.48 12.23 17.96 11.46 18.46 10.66 C19.41 9.16 19.41 9.16 20.38 7.62 C21.31 6.13 21.31 6.13 22.27 4.6 C24 2 24 2 26 0 C29.12 0.38 29.12 0.38 32 1 C28.16 7.12 24.28 13.17 20 19 C22.9 25.55 26.81 30.93 31.17 36.56 C33 39 33 39 33 40 C29.23 40.44 27.55 40.43 24.5 38.06 C21.37 34.22 18.65 30.18 16 26 C12.18 29.58 9.63 33.54 6.88 37.95 C5 40 5 40 2.28 40.3 C1.53 40.2 0.77 40.1 0 40 C-0.33 39.34 -0.66 38.68 -1 38 C-0.63 37.51 -0.25 37.02 0.13 36.52 C1.82 34.3 3.47 32.06 5.12 29.81 C5.71 29.04 6.3 28.27 6.91 27.48 C10.19 23.34 10.19 23.34 10.66 18.36 C10.11 17.58 9.56 16.8 9 16 C8.29 14.94 7.57 13.87 6.84 12.77 C5.6 11.05 4.35 9.35 3.1 7.64 C0 3.31 0 3.31 0 0 Z " fill="#EBE3C6" transform="translate(891,970)"/>
<path d="M0 0 C1.32 0.33 2.64 0.66 4 1 C4.33 5.62 4.66 10.24 5 15 C8.46 16.49 8.46 16.49 12 18 C12 18.99 12 19.98 12 21 C9.69 21.66 7.38 22.32 5 23 C4.67 34.22 4.34 45.44 4 57 C2.35 57 0.7 57 -1 57 C-2.98 55.02 -2.26 51.18 -2.32 48.46 C-2.35 47.33 -2.35 47.33 -2.38 46.18 C-2.44 43.77 -2.5 41.35 -2.56 38.94 C-2.61 37.3 -2.65 35.67 -2.69 34.04 C-2.8 30.02 -2.9 26.01 -3 22 C-4.98 21.34 -6.96 20.68 -9 20 C-8.5 18.51 -8.5 18.51 -8 17 C-6.02 17 -4.04 17 -2 17 C-2.02 15.94 -2.05 14.88 -2.07 13.79 C-2.09 12.4 -2.11 11.01 -2.12 9.62 C-2.14 8.93 -2.16 8.23 -2.18 7.51 C-2.19 5.67 -2.1 3.83 -2 2 C-1.34 1.34 -0.68 0.68 0 0 Z " fill="#EBE3C6" transform="translate(419,953)"/>
<path d="M0 0 C3.5 3.12 5.18 5.44 6 10.06 C6 15.2 4.72 17.21 1.25 20.81 C-2 22.53 -4.37 22.38 -8 22 C-10.75 20.62 -10.75 20.62 -13 19 C-13.99 18.34 -14.98 17.68 -16 17 C-16.8 12.56 -16.48 8.26 -14.88 4.06 C-10.5 -0.75 -6.19 -1.91 0 0 Z " fill="#EBE3C6" transform="translate(713,640)"/>
<path d="M0 0 C0.33 1.98 0.66 3.96 1 6 C0.41 6.09 -0.18 6.17 -0.79 6.26 C-6.32 7.24 -9.45 8.37 -13 13 C-14.75 16.66 -15.28 19.7 -15.41 23.74 C-15.45 24.8 -15.49 25.87 -15.53 26.97 C-15.58 28.62 -15.58 28.62 -15.62 30.31 C-15.66 31.43 -15.7 32.56 -15.74 33.71 C-15.84 36.48 -15.92 39.24 -16 42 C-17.67 42.04 -19.33 42.04 -21 42 C-22.81 40.19 -22.13 37.71 -22.14 35.3 C-22.14 34.5 -22.13 33.7 -22.13 32.88 C-22.13 32.06 -22.13 31.25 -22.14 30.41 C-22.14 28.68 -22.13 26.95 -22.13 25.23 C-22.13 22.58 -22.13 19.93 -22.14 17.28 C-22.14 15.6 -22.13 13.93 -22.13 12.25 C-22.13 11.46 -22.14 10.66 -22.14 9.84 C-22.11 4.23 -22.11 4.23 -21 2 C-18.11 2.4 -17.18 2.79 -15.25 5.06 C-14.84 5.7 -14.42 6.34 -14 7 C-13.28 6.22 -12.56 5.43 -11.81 4.62 C-7.84 0.91 -5.42 0 0 0 Z " fill="#EBE3C6" transform="translate(557,968)"/>
<path d="M0 0 C0.99 0.33 1.98 0.66 3 1 C3.81 2.86 3.81 2.86 4.44 5.31 C5.83 10.44 7.49 15.42 9.23 20.43 C10 23 10 23 10 26 C4.39 26 -1.22 26 -7 26 C-8.22 22.33 -7.63 21.26 -6.35 17.68 C-5.98 16.65 -5.62 15.62 -5.24 14.56 C-4.85 13.49 -4.46 12.42 -4.06 11.31 C-3.48 9.69 -3.48 9.69 -2.89 8.03 C-1.94 5.35 -0.97 2.67 0 0 Z " fill="#000000" transform="translate(514,861)"/>
<path d="M0 0 C0.33 0 0.66 0 1 0 C1.36 1.29 1.36 1.29 1.73 2.61 C4.05 10.77 6.47 18.9 9 27 C5.9 28.55 2.74 27.83 -0.62 27.56 C-1.33 27.51 -2.04 27.46 -2.77 27.4 C-4.51 27.27 -6.26 27.14 -8 27 C-9.29 23.41 -8.7 21.36 -7.38 17.83 C-7.02 16.86 -6.66 15.88 -6.29 14.88 C-5.91 13.87 -5.52 12.85 -5.12 11.81 C-4.75 10.79 -4.37 9.77 -3.98 8.71 C-1.17 1.17 -1.17 1.17 0 0 Z " fill="#000000" transform="translate(886,859)"/>
<path d="M0 0 C3.72 3.32 4.87 4.7 5.38 9.69 C5 13 5 13 4 16 C1.04 18.01 -1.06 18.2 -4.56 17.75 C-5.33 17.66 -6.09 17.57 -6.88 17.48 C-9 17 -9 17 -12 15 C-12.87 11.45 -13.19 8.82 -12.38 5.25 C-9.5 0.55 -5.35 -1 0 0 Z " fill="#EBE3C6" transform="translate(706,673)"/>
<path d="M0 0 C1.65 0.33 3.3 0.66 5 1 C5 13.87 5 26.74 5 40 C3.02 39.67 1.04 39.34 -1 39 C-1.02 33.77 -1.04 28.53 -1.05 23.3 C-1.06 21.52 -1.07 19.74 -1.08 17.96 C-1.09 15.4 -1.09 12.85 -1.1 10.29 C-1.1 9.49 -1.11 8.69 -1.11 7.87 C-1.11 2.23 -1.11 2.23 0 0 Z " fill="#EBE3C6" transform="translate(343,970)"/>
<path d="M0 0 C2.25 1.85 3.21 3 4.12 5.75 C4.12 7.07 4.12 8.39 4.12 9.75 C-3.47 9.75 -11.05 9.75 -18.88 9.75 C-19.21 9.09 -19.53 8.43 -19.88 7.75 C-18.54 4.06 -17.43 2.14 -14.19 -0.12 C-9.15 -1.83 -5.02 -2.18 0 0 Z " fill="#000000" transform="translate(1006.875,975.25)"/>
<path d="M0 0 C3 2.12 3 2.12 5 5 C5.33 6.98 5.66 8.96 6 11 C-1.59 11 -9.18 11 -17 11 C-17.33 10.34 -17.66 9.68 -18 9 C-13.51 1.52 -8.8 -1.69 0 0 Z " fill="#000000" transform="translate(510,974)"/>
<path d="M0 0 C4.23 7.04 4.23 7.04 3.31 10.94 C2 13 2 13 1 14 C-6.08 14.58 -6.08 14.58 -9.56 12.38 C-11 10 -11 10 -11.06 7 C-9.13 1.55 -5.73 -0.65 0 0 Z " fill="#EBE3C6" transform="translate(695,699)"/>
<path d="M0 0 C2.53 2.27 2.96 3.68 3.38 7.06 C3 10 3 10 1.88 11.88 C-0.92 13.55 -2.8 13.46 -6 13 C-8.44 11.38 -8.44 11.38 -10 9 C-10 5.47 -9.68 3.73 -7.25 1.12 C-4.52 -0.24 -3.01 -0.54 0 0 Z " fill="#EBE3C6" transform="translate(677,720)"/>
<path d="M0 0 C2.5 1.25 2.5 1.25 4.5 4.25 C4.86 7.12 4.91 8.62 3.31 11.06 C0.79 12.71 -0.53 12.74 -3.5 12.25 C-6.31 10.25 -6.31 10.25 -8.5 8.25 C-8 4.57 -7.44 2.6 -4.5 0.25 C-2.5 -0.75 -2.5 -0.75 0 0 Z " fill="#EBE3C6" transform="translate(658.5,739.75)"/>
<path d="M0 0 C0.33 2.31 0.66 4.62 1 7 C-1.31 7.62 -1.31 7.62 -4 8 C-4.99 7.34 -5.98 6.68 -7 6 C-6.62 3.56 -6.62 3.56 -6 1 C-4 0 -4 0 0 0 Z " fill="#EBE3C6" transform="translate(348,950)"/>
</svg>
